<?xml version="1.0" encoding="utf-8" standalone="no"?>
<!DOCTYPE svg PUBLIC "-//W3C//DTD SVG 1.1//EN"
  "http://www.w3.org/Graphics/SVG/1.1/DTD/svg11.dtd">
<svg xmlns:xlink="http://www.w3.org/1999/xlink" width="792pt" height="396pt" viewBox="0 0 792 396" xmlns="http://www.w3.org/2000/svg" version="1.1">
 <metadata>
  <rdf:RDF xmlns:dc="http://purl.org/dc/elements/1.1/" xmlns:cc="http://creativecommons.org/ns#" xmlns:rdf="http://www.w3.org/1999/02/22-rdf-syntax-ns#">
   <cc:Work>
    <dc:type rdf:resource="http://purl.org/dc/dcmitype/StillImage"/>
    <dc:date>2026-04-25T15:09:45.832314</dc:date>
    <dc:format>image/svg+xml</dc:format>
    <dc:creator>
     <cc:Agent>
      <dc:title>Matplotlib v3.10.6, https://matplotlib.org/</dc:title>
     </cc:Agent>
    </dc:creator>
   </cc:Work>
  </rdf:RDF>
 </metadata>
 <defs>
  <style type="text/css">*{stroke-linejoin: round; stroke-linecap: butt}</style>
 </defs>
 <g id="figure_1">
  <g id="patch_1">
   <path d="M 0 396 
L 792 396 
L 792 0 
L 0 0 
z
" style="fill: #ffffff"/>
  </g>
  <g id="axes_1">
   <g id="patch_2">
    <path d="M 71.84 354.04 
L 781.2 354.04 
L 781.2 25.44 
L 71.84 25.44 
z
" style="fill: #ffffff"/>
   </g>
   <g id="patch_3">
    <path d="M 104.083636 354.04 
L 317.608162 354.04 
L 317.608162 25.44 
L 104.083636 25.44 
z
" clip-path="url(#p264e9dbb7f)" style="fill: #d7f5d8; opacity: 0.6; stroke: #d7f5d8; stroke-linejoin: miter"/>
   </g>
   <g id="patch_4">
    <path d="M 319.041212 354.04 
L 532.565737 354.04 
L 532.565737 25.44 
L 319.041212 25.44 
z
" clip-path="url(#p264e9dbb7f)" style="fill: #ffe3b3; opacity: 0.6; stroke: #ffe3b3; stroke-linejoin: miter"/>
   </g>
   <g id="patch_5">
    <path d="M 533.998788 354.04 
L 748.956364 354.04 
L 748.956364 25.44 
L 533.998788 25.44 
z
" clip-path="url(#p264e9dbb7f)" style="fill: #ffd3d3; opacity: 0.6; stroke: #ffd3d3; stroke-linejoin: miter"/>
   </g>
   <g id="matplotlib.axis_1">
    <g id="xtick_1">
     <g id="line2d_1">
      <path d="M 104.083636 354.04 
L 104.083636 25.44 
" clip-path="url(#p264e9dbb7f)" style="fill: none; stroke: #b0b0b0; stroke-opacity: 0.25; stroke-width: 0.8; stroke-linecap: square"/>
     </g>
     <g id="line2d_2">
      <defs>
       <path id="mab6ad3dd2d" d="M 0 0 
L 0 3.5 
" style="stroke: #000000; stroke-width: 0.8"/>
      </defs>
      <g>
       <use xlink:href="#mab6ad3dd2d" x="104.083636" y="354.04" style="stroke: #000000; stroke-width: 0.8"/>
      </g>
     </g>
     <g id="text_1">
      <!-- 0 -->
      <g transform="translate(100.902386 368.638437) scale(0.1 -0.1)">
       <defs>
        <path id="DejaVuSans-30" d="M 2034 4250 
Q 1547 4250 1301 3770 
Q 1056 3291 1056 2328 
Q 1056 1369 1301 889 
Q 1547 409 2034 409 
Q 2525 409 2770 889 
Q 3016 1369 3016 2328 
Q 3016 3291 2770 3770 
Q 2525 4250 2034 4250 
z
M 2034 4750 
Q 2819 4750 3233 4129 
Q 3647 3509 3647 2328 
Q 3647 1150 3233 529 
Q 2819 -91 2034 -91 
Q 1250 -91 836 529 
Q 422 1150 422 2328 
Q 422 3509 836 4129 
Q 1250 4750 2034 4750 
z
" transform="scale(0.015625)"/>
       </defs>
       <use xlink:href="#DejaVuSans-30"/>
      </g>
     </g>
    </g>
    <g id="xtick_2">
     <g id="line2d_3">
      <path d="M 247.388687 354.04 
L 247.388687 25.44 
" clip-path="url(#p264e9dbb7f)" style="fill: none; stroke: #b0b0b0; stroke-opacity: 0.25; stroke-width: 0.8; stroke-linecap: square"/>
     </g>
     <g id="line2d_4">
      <g>
       <use xlink:href="#mab6ad3dd2d" x="247.388687" y="354.04" style="stroke: #000000; stroke-width: 0.8"/>
      </g>
     </g>
     <g id="text_2">
      <!-- 100 -->
      <g transform="translate(237.844937 368.638437) scale(0.1 -0.1)">
       <defs>
        <path id="DejaVuSans-31" d="M 794 531 
L 1825 531 
L 1825 4091 
L 703 3866 
L 703 4441 
L 1819 4666 
L 2450 4666 
L 2450 531 
L 3481 531 
L 3481 0 
L 794 0 
L 794 531 
z
" transform="scale(0.015625)"/>
       </defs>
       <use xlink:href="#DejaVuSans-31"/>
       <use xlink:href="#DejaVuSans-30" transform="translate(63.623047 0)"/>
       <use xlink:href="#DejaVuSans-30" transform="translate(127.246094 0)"/>
      </g>
     </g>
    </g>
    <g id="xtick_3">
     <g id="line2d_5">
      <path d="M 390.693737 354.04 
L 390.693737 25.44 
" clip-path="url(#p264e9dbb7f)" style="fill: none; stroke: #b0b0b0; stroke-opacity: 0.25; stroke-width: 0.8; stroke-linecap: square"/>
     </g>
     <g id="line2d_6">
      <g>
       <use xlink:href="#mab6ad3dd2d" x="390.693737" y="354.04" style="stroke: #000000; stroke-width: 0.8"/>
      </g>
     </g>
     <g id="text_3">
      <!-- 200 -->
      <g transform="translate(381.149987 368.638437) scale(0.1 -0.1)">
       <defs>
        <path id="DejaVuSans-32" d="M 1228 531 
L 3431 531 
L 3431 0 
L 469 0 
L 469 531 
Q 828 903 1448 1529 
Q 2069 2156 2228 2338 
Q 2531 2678 2651 2914 
Q 2772 3150 2772 3378 
Q 2772 3750 2511 3984 
Q 2250 4219 1831 4219 
Q 1534 4219 1204 4116 
Q 875 4013 500 3803 
L 500 4441 
Q 881 4594 1212 4672 
Q 1544 4750 1819 4750 
Q 2544 4750 2975 4387 
Q 3406 4025 3406 3419 
Q 3406 3131 3298 2873 
Q 3191 2616 2906 2266 
Q 2828 2175 2409 1742 
Q 1991 1309 1228 531 
z
" transform="scale(0.015625)"/>
       </defs>
       <use xlink:href="#DejaVuSans-32"/>
       <use xlink:href="#DejaVuSans-30" transform="translate(63.623047 0)"/>
       <use xlink:href="#DejaVuSans-30" transform="translate(127.246094 0)"/>
      </g>
     </g>
    </g>
    <g id="xtick_4">
     <g id="line2d_7">
      <path d="M 533.998788 354.04 
L 533.998788 25.44 
" clip-path="url(#p264e9dbb7f)" style="fill: none; stroke: #b0b0b0; stroke-opacity: 0.25; stroke-width: 0.8; stroke-linecap: square"/>
     </g>
     <g id="line2d_8">
      <g>
       <use xlink:href="#mab6ad3dd2d" x="533.998788" y="354.04" style="stroke: #000000; stroke-width: 0.8"/>
      </g>
     </g>
     <g id="text_4">
      <!-- 300 -->
      <g transform="translate(524.455038 368.638437) scale(0.1 -0.1)">
       <defs>
        <path id="DejaVuSans-33" d="M 2597 2516 
Q 3050 2419 3304 2112 
Q 3559 1806 3559 1356 
Q 3559 666 3084 287 
Q 2609 -91 1734 -91 
Q 1441 -91 1130 -33 
Q 819 25 488 141 
L 488 750 
Q 750 597 1062 519 
Q 1375 441 1716 441 
Q 2309 441 2620 675 
Q 2931 909 2931 1356 
Q 2931 1769 2642 2001 
Q 2353 2234 1838 2234 
L 1294 2234 
L 1294 2753 
L 1863 2753 
Q 2328 2753 2575 2939 
Q 2822 3125 2822 3475 
Q 2822 3834 2567 4026 
Q 2313 4219 1838 4219 
Q 1578 4219 1281 4162 
Q 984 4106 628 3988 
L 628 4550 
Q 988 4650 1302 4700 
Q 1616 4750 1894 4750 
Q 2613 4750 3031 4423 
Q 3450 4097 3450 3541 
Q 3450 3153 3228 2886 
Q 3006 2619 2597 2516 
z
" transform="scale(0.015625)"/>
       </defs>
       <use xlink:href="#DejaVuSans-33"/>
       <use xlink:href="#DejaVuSans-30" transform="translate(63.623047 0)"/>
       <use xlink:href="#DejaVuSans-30" transform="translate(127.246094 0)"/>
      </g>
     </g>
    </g>
    <g id="xtick_5">
     <g id="line2d_9">
      <path d="M 677.303838 354.04 
L 677.303838 25.44 
" clip-path="url(#p264e9dbb7f)" style="fill: none; stroke: #b0b0b0; stroke-opacity: 0.25; stroke-width: 0.8; stroke-linecap: square"/>
     </g>
     <g id="line2d_10">
      <g>
       <use xlink:href="#mab6ad3dd2d" x="677.303838" y="354.04" style="stroke: #000000; stroke-width: 0.8"/>
      </g>
     </g>
     <g id="text_5">
      <!-- 400 -->
      <g transform="translate(667.760088 368.638437) scale(0.1 -0.1)">
       <defs>
        <path id="DejaVuSans-34" d="M 2419 4116 
L 825 1625 
L 2419 1625 
L 2419 4116 
z
M 2253 4666 
L 3047 4666 
L 3047 1625 
L 3713 1625 
L 3713 1100 
L 3047 1100 
L 3047 0 
L 2419 0 
L 2419 1100 
L 313 1100 
L 313 1709 
L 2253 4666 
z
" transform="scale(0.015625)"/>
       </defs>
       <use xlink:href="#DejaVuSans-34"/>
       <use xlink:href="#DejaVuSans-30" transform="translate(63.623047 0)"/>
       <use xlink:href="#DejaVuSans-30" transform="translate(127.246094 0)"/>
      </g>
     </g>
    </g>
    <g id="text_6">
     <!-- Training Episode -->
     <g transform="translate(385.567656 382.316562) scale(0.1 -0.1)">
      <defs>
       <path id="DejaVuSans-54" d="M -19 4666 
L 3928 4666 
L 3928 4134 
L 2272 4134 
L 2272 0 
L 1638 0 
L 1638 4134 
L -19 4134 
L -19 4666 
z
" transform="scale(0.015625)"/>
       <path id="DejaVuSans-72" d="M 2631 2963 
Q 2534 3019 2420 3045 
Q 2306 3072 2169 3072 
Q 1681 3072 1420 2755 
Q 1159 2438 1159 1844 
L 1159 0 
L 581 0 
L 581 3500 
L 1159 3500 
L 1159 2956 
Q 1341 3275 1631 3429 
Q 1922 3584 2338 3584 
Q 2397 3584 2469 3576 
Q 2541 3569 2628 3553 
L 2631 2963 
z
" transform="scale(0.015625)"/>
       <path id="DejaVuSans-61" d="M 2194 1759 
Q 1497 1759 1228 1600 
Q 959 1441 959 1056 
Q 959 750 1161 570 
Q 1363 391 1709 391 
Q 2188 391 2477 730 
Q 2766 1069 2766 1631 
L 2766 1759 
L 2194 1759 
z
M 3341 1997 
L 3341 0 
L 2766 0 
L 2766 531 
Q 2569 213 2275 61 
Q 1981 -91 1556 -91 
Q 1019 -91 701 211 
Q 384 513 384 1019 
Q 384 1609 779 1909 
Q 1175 2209 1959 2209 
L 2766 2209 
L 2766 2266 
Q 2766 2663 2505 2880 
Q 2244 3097 1772 3097 
Q 1472 3097 1187 3025 
Q 903 2953 641 2809 
L 641 3341 
Q 956 3463 1253 3523 
Q 1550 3584 1831 3584 
Q 2591 3584 2966 3190 
Q 3341 2797 3341 1997 
z
" transform="scale(0.015625)"/>
       <path id="DejaVuSans-69" d="M 603 3500 
L 1178 3500 
L 1178 0 
L 603 0 
L 603 3500 
z
M 603 4863 
L 1178 4863 
L 1178 4134 
L 603 4134 
L 603 4863 
z
" transform="scale(0.015625)"/>
       <path id="DejaVuSans-6e" d="M 3513 2113 
L 3513 0 
L 2938 0 
L 2938 2094 
Q 2938 2591 2744 2837 
Q 2550 3084 2163 3084 
Q 1697 3084 1428 2787 
Q 1159 2491 1159 1978 
L 1159 0 
L 581 0 
L 581 3500 
L 1159 3500 
L 1159 2956 
Q 1366 3272 1645 3428 
Q 1925 3584 2291 3584 
Q 2894 3584 3203 3211 
Q 3513 2838 3513 2113 
z
" transform="scale(0.015625)"/>
       <path id="DejaVuSans-67" d="M 2906 1791 
Q 2906 2416 2648 2759 
Q 2391 3103 1925 3103 
Q 1463 3103 1205 2759 
Q 947 2416 947 1791 
Q 947 1169 1205 825 
Q 1463 481 1925 481 
Q 2391 481 2648 825 
Q 2906 1169 2906 1791 
z
M 3481 434 
Q 3481 -459 3084 -895 
Q 2688 -1331 1869 -1331 
Q 1566 -1331 1297 -1286 
Q 1028 -1241 775 -1147 
L 775 -588 
Q 1028 -725 1275 -790 
Q 1522 -856 1778 -856 
Q 2344 -856 2625 -561 
Q 2906 -266 2906 331 
L 2906 616 
Q 2728 306 2450 153 
Q 2172 0 1784 0 
Q 1141 0 747 490 
Q 353 981 353 1791 
Q 353 2603 747 3093 
Q 1141 3584 1784 3584 
Q 2172 3584 2450 3431 
Q 2728 3278 2906 2969 
L 2906 3500 
L 3481 3500 
L 3481 434 
z
" transform="scale(0.015625)"/>
       <path id="DejaVuSans-20" transform="scale(0.015625)"/>
       <path id="DejaVuSans-45" d="M 628 4666 
L 3578 4666 
L 3578 4134 
L 1259 4134 
L 1259 2753 
L 3481 2753 
L 3481 2222 
L 1259 2222 
L 1259 531 
L 3634 531 
L 3634 0 
L 628 0 
L 628 4666 
z
" transform="scale(0.015625)"/>
       <path id="DejaVuSans-70" d="M 1159 525 
L 1159 -1331 
L 581 -1331 
L 581 3500 
L 1159 3500 
L 1159 2969 
Q 1341 3281 1617 3432 
Q 1894 3584 2278 3584 
Q 2916 3584 3314 3078 
Q 3713 2572 3713 1747 
Q 3713 922 3314 415 
Q 2916 -91 2278 -91 
Q 1894 -91 1617 61 
Q 1341 213 1159 525 
z
M 3116 1747 
Q 3116 2381 2855 2742 
Q 2594 3103 2138 3103 
Q 1681 3103 1420 2742 
Q 1159 2381 1159 1747 
Q 1159 1113 1420 752 
Q 1681 391 2138 391 
Q 2594 391 2855 752 
Q 3116 1113 3116 1747 
z
" transform="scale(0.015625)"/>
       <path id="DejaVuSans-73" d="M 2834 3397 
L 2834 2853 
Q 2591 2978 2328 3040 
Q 2066 3103 1784 3103 
Q 1356 3103 1142 2972 
Q 928 2841 928 2578 
Q 928 2378 1081 2264 
Q 1234 2150 1697 2047 
L 1894 2003 
Q 2506 1872 2764 1633 
Q 3022 1394 3022 966 
Q 3022 478 2636 193 
Q 2250 -91 1575 -91 
Q 1294 -91 989 -36 
Q 684 19 347 128 
L 347 722 
Q 666 556 975 473 
Q 1284 391 1588 391 
Q 1994 391 2212 530 
Q 2431 669 2431 922 
Q 2431 1156 2273 1281 
Q 2116 1406 1581 1522 
L 1381 1569 
Q 847 1681 609 1914 
Q 372 2147 372 2553 
Q 372 3047 722 3315 
Q 1072 3584 1716 3584 
Q 2034 3584 2315 3537 
Q 2597 3491 2834 3397 
z
" transform="scale(0.015625)"/>
       <path id="DejaVuSans-6f" d="M 1959 3097 
Q 1497 3097 1228 2736 
Q 959 2375 959 1747 
Q 959 1119 1226 758 
Q 1494 397 1959 397 
Q 2419 397 2687 759 
Q 2956 1122 2956 1747 
Q 2956 2369 2687 2733 
Q 2419 3097 1959 3097 
z
M 1959 3584 
Q 2709 3584 3137 3096 
Q 3566 2609 3566 1747 
Q 3566 888 3137 398 
Q 2709 -91 1959 -91 
Q 1206 -91 779 398 
Q 353 888 353 1747 
Q 353 2609 779 3096 
Q 1206 3584 1959 3584 
z
" transform="scale(0.015625)"/>
       <path id="DejaVuSans-64" d="M 2906 2969 
L 2906 4863 
L 3481 4863 
L 3481 0 
L 2906 0 
L 2906 525 
Q 2725 213 2448 61 
Q 2172 -91 1784 -91 
Q 1150 -91 751 415 
Q 353 922 353 1747 
Q 353 2572 751 3078 
Q 1150 3584 1784 3584 
Q 2172 3584 2448 3432 
Q 2725 3281 2906 2969 
z
M 947 1747 
Q 947 1113 1208 752 
Q 1469 391 1925 391 
Q 2381 391 2643 752 
Q 2906 1113 2906 1747 
Q 2906 2381 2643 2742 
Q 2381 3103 1925 3103 
Q 1469 3103 1208 2742 
Q 947 2381 947 1747 
z
" transform="scale(0.015625)"/>
       <path id="DejaVuSans-65" d="M 3597 1894 
L 3597 1613 
L 953 1613 
Q 991 1019 1311 708 
Q 1631 397 2203 397 
Q 2534 397 2845 478 
Q 3156 559 3463 722 
L 3463 178 
Q 3153 47 2828 -22 
Q 2503 -91 2169 -91 
Q 1331 -91 842 396 
Q 353 884 353 1716 
Q 353 2575 817 3079 
Q 1281 3584 2069 3584 
Q 2775 3584 3186 3129 
Q 3597 2675 3597 1894 
z
M 3022 2063 
Q 3016 2534 2758 2815 
Q 2500 3097 2075 3097 
Q 1594 3097 1305 2825 
Q 1016 2553 972 2059 
L 3022 2063 
z
" transform="scale(0.015625)"/>
      </defs>
      <use xlink:href="#DejaVuSans-54"/>
      <use xlink:href="#DejaVuSans-72" transform="translate(46.333984 0)"/>
      <use xlink:href="#DejaVuSans-61" transform="translate(87.447266 0)"/>
      <use xlink:href="#DejaVuSans-69" transform="translate(148.726562 0)"/>
      <use xlink:href="#DejaVuSans-6e" transform="translate(176.509766 0)"/>
      <use xlink:href="#DejaVuSans-69" transform="translate(239.888672 0)"/>
      <use xlink:href="#DejaVuSans-6e" transform="translate(267.671875 0)"/>
      <use xlink:href="#DejaVuSans-67" transform="translate(331.050781 0)"/>
      <use xlink:href="#DejaVuSans-20" transform="translate(394.527344 0)"/>
      <use xlink:href="#DejaVuSans-45" transform="translate(426.314453 0)"/>
      <use xlink:href="#DejaVuSans-70" transform="translate(489.498047 0)"/>
      <use xlink:href="#DejaVuSans-69" transform="translate(552.974609 0)"/>
      <use xlink:href="#DejaVuSans-73" transform="translate(580.757812 0)"/>
      <use xlink:href="#DejaVuSans-6f" transform="translate(632.857422 0)"/>
      <use xlink:href="#DejaVuSans-64" transform="translate(694.039062 0)"/>
      <use xlink:href="#DejaVuSans-65" transform="translate(757.515625 0)"/>
     </g>
    </g>
   </g>
   <g id="matplotlib.axis_2">
    <g id="ytick_1">
     <g id="line2d_11">
      <path d="M 71.84 316.124615 
L 781.2 316.124615 
" clip-path="url(#p264e9dbb7f)" style="fill: none; stroke: #b0b0b0; stroke-opacity: 0.25; stroke-width: 0.8; stroke-linecap: square"/>
     </g>
     <g id="line2d_12">
      <defs>
       <path id="md57b3d8e43" d="M 0 0 
L -3.5 0 
" style="stroke: #000000; stroke-width: 0.8"/>
      </defs>
      <g>
       <use xlink:href="#md57b3d8e43" x="71.84" y="316.124615" style="stroke: #000000; stroke-width: 0.8"/>
      </g>
     </g>
     <g id="text_7">
      <!-- Easy -->
      <g transform="translate(41.265 319.923834) scale(0.1 -0.1)">
       <defs>
        <path id="DejaVuSans-79" d="M 2059 -325 
Q 1816 -950 1584 -1140 
Q 1353 -1331 966 -1331 
L 506 -1331 
L 506 -850 
L 844 -850 
Q 1081 -850 1212 -737 
Q 1344 -625 1503 -206 
L 1606 56 
L 191 3500 
L 800 3500 
L 1894 763 
L 2988 3500 
L 3597 3500 
L 2059 -325 
z
" transform="scale(0.015625)"/>
       </defs>
       <use xlink:href="#DejaVuSans-45"/>
       <use xlink:href="#DejaVuSans-61" transform="translate(63.183594 0)"/>
       <use xlink:href="#DejaVuSans-73" transform="translate(124.462891 0)"/>
       <use xlink:href="#DejaVuSans-79" transform="translate(176.5625 0)"/>
      </g>
     </g>
    </g>
    <g id="ytick_2">
     <g id="line2d_13">
      <path d="M 71.84 189.74 
L 781.2 189.74 
" clip-path="url(#p264e9dbb7f)" style="fill: none; stroke: #b0b0b0; stroke-opacity: 0.25; stroke-width: 0.8; stroke-linecap: square"/>
     </g>
     <g id="line2d_14">
      <g>
       <use xlink:href="#md57b3d8e43" x="71.84" y="189.74" style="stroke: #000000; stroke-width: 0.8"/>
      </g>
     </g>
     <g id="text_8">
      <!-- Medium -->
      <g transform="translate(24.854063 193.539219) scale(0.1 -0.1)">
       <defs>
        <path id="DejaVuSans-4d" d="M 628 4666 
L 1569 4666 
L 2759 1491 
L 3956 4666 
L 4897 4666 
L 4897 0 
L 4281 0 
L 4281 4097 
L 3078 897 
L 2444 897 
L 1241 4097 
L 1241 0 
L 628 0 
L 628 4666 
z
" transform="scale(0.015625)"/>
        <path id="DejaVuSans-75" d="M 544 1381 
L 544 3500 
L 1119 3500 
L 1119 1403 
Q 1119 906 1312 657 
Q 1506 409 1894 409 
Q 2359 409 2629 706 
Q 2900 1003 2900 1516 
L 2900 3500 
L 3475 3500 
L 3475 0 
L 2900 0 
L 2900 538 
Q 2691 219 2414 64 
Q 2138 -91 1772 -91 
Q 1169 -91 856 284 
Q 544 659 544 1381 
z
M 1991 3584 
L 1991 3584 
z
" transform="scale(0.015625)"/>
        <path id="DejaVuSans-6d" d="M 3328 2828 
Q 3544 3216 3844 3400 
Q 4144 3584 4550 3584 
Q 5097 3584 5394 3201 
Q 5691 2819 5691 2113 
L 5691 0 
L 5113 0 
L 5113 2094 
Q 5113 2597 4934 2840 
Q 4756 3084 4391 3084 
Q 3944 3084 3684 2787 
Q 3425 2491 3425 1978 
L 3425 0 
L 2847 0 
L 2847 2094 
Q 2847 2600 2669 2842 
Q 2491 3084 2119 3084 
Q 1678 3084 1418 2786 
Q 1159 2488 1159 1978 
L 1159 0 
L 581 0 
L 581 3500 
L 1159 3500 
L 1159 2956 
Q 1356 3278 1631 3431 
Q 1906 3584 2284 3584 
Q 2666 3584 2933 3390 
Q 3200 3197 3328 2828 
z
" transform="scale(0.015625)"/>
       </defs>
       <use xlink:href="#DejaVuSans-4d"/>
       <use xlink:href="#DejaVuSans-65" transform="translate(86.279297 0)"/>
       <use xlink:href="#DejaVuSans-64" transform="translate(147.802734 0)"/>
       <use xlink:href="#DejaVuSans-69" transform="translate(211.279297 0)"/>
       <use xlink:href="#DejaVuSans-75" transform="translate(239.0625 0)"/>
       <use xlink:href="#DejaVuSans-6d" transform="translate(302.441406 0)"/>
      </g>
     </g>
    </g>
    <g id="ytick_3">
     <g id="line2d_15">
      <path d="M 71.84 63.355385 
L 781.2 63.355385 
" clip-path="url(#p264e9dbb7f)" style="fill: none; stroke: #b0b0b0; stroke-opacity: 0.25; stroke-width: 0.8; stroke-linecap: square"/>
     </g>
     <g id="line2d_16">
      <g>
       <use xlink:href="#md57b3d8e43" x="71.84" y="63.355385" style="stroke: #000000; stroke-width: 0.8"/>
      </g>
     </g>
     <g id="text_9">
      <!-- Hard -->
      <g transform="translate(40.907188 67.154603) scale(0.1 -0.1)">
       <defs>
        <path id="DejaVuSans-48" d="M 628 4666 
L 1259 4666 
L 1259 2753 
L 3553 2753 
L 3553 4666 
L 4184 4666 
L 4184 0 
L 3553 0 
L 3553 2222 
L 1259 2222 
L 1259 0 
L 628 0 
L 628 4666 
z
" transform="scale(0.015625)"/>
       </defs>
       <use xlink:href="#DejaVuSans-48"/>
       <use xlink:href="#DejaVuSans-61" transform="translate(75.195312 0)"/>
       <use xlink:href="#DejaVuSans-72" transform="translate(136.474609 0)"/>
       <use xlink:href="#DejaVuSans-64" transform="translate(175.837891 0)"/>
      </g>
     </g>
    </g>
    <g id="text_10">
     <!-- Task Difficulty Level -->
     <g transform="translate(18.774375 239.286094) rotate(-90) scale(0.1 -0.1)">
      <defs>
       <path id="DejaVuSans-6b" d="M 581 4863 
L 1159 4863 
L 1159 1991 
L 2875 3500 
L 3609 3500 
L 1753 1863 
L 3688 0 
L 2938 0 
L 1159 1709 
L 1159 0 
L 581 0 
L 581 4863 
z
" transform="scale(0.015625)"/>
       <path id="DejaVuSans-44" d="M 1259 4147 
L 1259 519 
L 2022 519 
Q 2988 519 3436 956 
Q 3884 1394 3884 2338 
Q 3884 3275 3436 3711 
Q 2988 4147 2022 4147 
L 1259 4147 
z
M 628 4666 
L 1925 4666 
Q 3281 4666 3915 4102 
Q 4550 3538 4550 2338 
Q 4550 1131 3912 565 
Q 3275 0 1925 0 
L 628 0 
L 628 4666 
z
" transform="scale(0.015625)"/>
       <path id="DejaVuSans-66" d="M 2375 4863 
L 2375 4384 
L 1825 4384 
Q 1516 4384 1395 4259 
Q 1275 4134 1275 3809 
L 1275 3500 
L 2222 3500 
L 2222 3053 
L 1275 3053 
L 1275 0 
L 697 0 
L 697 3053 
L 147 3053 
L 147 3500 
L 697 3500 
L 697 3744 
Q 697 4328 969 4595 
Q 1241 4863 1831 4863 
L 2375 4863 
z
" transform="scale(0.015625)"/>
       <path id="DejaVuSans-63" d="M 3122 3366 
L 3122 2828 
Q 2878 2963 2633 3030 
Q 2388 3097 2138 3097 
Q 1578 3097 1268 2742 
Q 959 2388 959 1747 
Q 959 1106 1268 751 
Q 1578 397 2138 397 
Q 2388 397 2633 464 
Q 2878 531 3122 666 
L 3122 134 
Q 2881 22 2623 -34 
Q 2366 -91 2075 -91 
Q 1284 -91 818 406 
Q 353 903 353 1747 
Q 353 2603 823 3093 
Q 1294 3584 2113 3584 
Q 2378 3584 2631 3529 
Q 2884 3475 3122 3366 
z
" transform="scale(0.015625)"/>
       <path id="DejaVuSans-6c" d="M 603 4863 
L 1178 4863 
L 1178 0 
L 603 0 
L 603 4863 
z
" transform="scale(0.015625)"/>
       <path id="DejaVuSans-74" d="M 1172 4494 
L 1172 3500 
L 2356 3500 
L 2356 3053 
L 1172 3053 
L 1172 1153 
Q 1172 725 1289 603 
Q 1406 481 1766 481 
L 2356 481 
L 2356 0 
L 1766 0 
Q 1100 0 847 248 
Q 594 497 594 1153 
L 594 3053 
L 172 3053 
L 172 3500 
L 594 3500 
L 594 4494 
L 1172 4494 
z
" transform="scale(0.015625)"/>
       <path id="DejaVuSans-4c" d="M 628 4666 
L 1259 4666 
L 1259 531 
L 3531 531 
L 3531 0 
L 628 0 
L 628 4666 
z
" transform="scale(0.015625)"/>
       <path id="DejaVuSans-76" d="M 191 3500 
L 800 3500 
L 1894 563 
L 2988 3500 
L 3597 3500 
L 2284 0 
L 1503 0 
L 191 3500 
z
" transform="scale(0.015625)"/>
      </defs>
      <use xlink:href="#DejaVuSans-54"/>
      <use xlink:href="#DejaVuSans-61" transform="translate(44.583984 0)"/>
      <use xlink:href="#DejaVuSans-73" transform="translate(105.863281 0)"/>
      <use xlink:href="#DejaVuSans-6b" transform="translate(157.962891 0)"/>
      <use xlink:href="#DejaVuSans-20" transform="translate(215.873047 0)"/>
      <use xlink:href="#DejaVuSans-44" transform="translate(247.660156 0)"/>
      <use xlink:href="#DejaVuSans-69" transform="translate(324.662109 0)"/>
      <use xlink:href="#DejaVuSans-66" transform="translate(352.445312 0)"/>
      <use xlink:href="#DejaVuSans-66" transform="translate(387.650391 0)"/>
      <use xlink:href="#DejaVuSans-69" transform="translate(422.855469 0)"/>
      <use xlink:href="#DejaVuSans-63" transform="translate(450.638672 0)"/>
      <use xlink:href="#DejaVuSans-75" transform="translate(505.619141 0)"/>
      <use xlink:href="#DejaVuSans-6c" transform="translate(568.998047 0)"/>
      <use xlink:href="#DejaVuSans-74" transform="translate(596.78125 0)"/>
      <use xlink:href="#DejaVuSans-79" transform="translate(635.990234 0)"/>
      <use xlink:href="#DejaVuSans-20" transform="translate(695.169922 0)"/>
      <use xlink:href="#DejaVuSans-4c" transform="translate(726.957031 0)"/>
      <use xlink:href="#DejaVuSans-65" transform="translate(780.919922 0)"/>
      <use xlink:href="#DejaVuSans-76" transform="translate(842.443359 0)"/>
      <use xlink:href="#DejaVuSans-65" transform="translate(901.623047 0)"/>
      <use xlink:href="#DejaVuSans-6c" transform="translate(963.146484 0)"/>
     </g>
    </g>
   </g>
   <g id="line2d_17">
    <path d="M 104.083636 314.362475 
L 105.516687 322.127749 
L 106.949737 318.967899 
L 108.382788 319.622806 
L 109.815838 313.135983 
L 111.248889 313.891406 
L 112.681939 311.168069 
L 114.11499 321.345073 
L 115.54804 317.111403 
L 116.981091 322.067255 
L 118.414141 319.680599 
L 119.847192 316.056933 
L 121.280242 322.108472 
L 122.713293 319.930844 
L 124.146343 314.230307 
L 125.579394 315.556624 
L 127.012444 319.657816 
L 128.445495 314.996434 
L 129.878545 312.21389 
L 131.311596 322.361712 
L 132.744646 312.259531 
L 134.177697 313.620438 
L 135.610747 318.143603 
L 137.043798 320.478824 
L 138.476848 310.346146 
L 139.909899 318.189809 
L 141.342949 321.271681 
L 142.776 321.2215 
L 144.209051 311.732821 
L 145.642101 314.813678 
L 147.075152 312.242987 
L 148.508202 313.221159 
L 149.941253 315.666748 
L 151.374303 310.14516 
L 152.807354 317.659754 
L 154.240404 315.466902 
L 155.673455 311.961447 
L 157.106505 314.626708 
L 158.539556 311.553197 
L 159.972606 315.147003 
L 161.405657 313.539142 
L 162.838707 321.864696 
L 164.271758 319.563563 
L 165.704808 318.786428 
L 167.137859 321.435398 
L 168.570909 319.501727 
L 170.00396 321.167343 
L 171.43701 318.930687 
L 172.870061 314.409773 
L 174.303111 317.832929 
L 175.736162 317.765328 
L 177.169212 319.796 
L 178.602263 319.069657 
L 180.035313 310.605973 
L 181.468364 314.253676 
L 182.901414 314.745367 
L 184.334465 320.280917 
L 185.767515 313.228805 
L 187.200566 320.37869 
L 188.633616 317.648113 
L 190.066667 309.937793 
L 191.499717 314.355234 
L 192.932768 315.404858 
L 194.365818 313.791375 
L 195.798869 311.791495 
L 197.231919 312.636401 
L 198.66497 319.549031 
L 200.09802 322.038148 
L 201.531071 318.457005 
L 204.397172 319.777348 
L 205.830222 310.526918 
L 207.263273 311.367908 
L 208.696323 318.466802 
L 210.129374 314.16011 
L 211.562424 317.443668 
L 212.995475 310.885372 
L 214.428525 316.644665 
L 215.861576 319.096168 
L 217.294626 319.326854 
L 218.727677 315.349017 
L 220.160727 319.123196 
L 223.026828 311.096746 
L 224.459879 317.396038 
L 225.892929 319.671969 
L 227.32598 309.836505 
L 228.75903 316.004218 
L 230.192081 321.294891 
L 231.625131 321.848368 
L 233.058182 321.05805 
L 234.491232 314.513893 
L 235.924283 312.433182 
L 238.790384 321.640954 
L 240.223434 317.620765 
L 241.656485 309.854404 
L 243.089535 315.756655 
L 244.522586 310.170909 
L 245.955636 311.564915 
L 247.388687 322.298744 
L 248.821737 313.335031 
L 250.254788 313.828076 
L 251.687838 315.657367 
L 253.120889 319.071586 
L 254.553939 314.343075 
L 255.98699 321.033998 
L 257.42004 316.949082 
L 258.853091 316.709477 
L 260.286141 310.38908 
L 261.719192 311.374412 
L 263.152242 319.115014 
L 264.585293 316.117208 
L 266.018343 320.185961 
L 267.451394 310.909634 
L 268.884444 311.441831 
L 270.317495 318.671963 
L 271.750545 314.368508 
L 273.183596 314.7474 
L 274.616646 320.512193 
L 276.049697 312.806883 
L 277.482747 315.626925 
L 278.915798 312.603205 
L 280.348848 315.740992 
L 281.781899 322.436618 
L 283.214949 318.347012 
L 284.648 322.19769 
L 286.081051 310.701469 
L 288.947152 311.932873 
L 290.380202 318.557341 
L 291.813253 321.711761 
L 293.246303 311.347156 
L 294.679354 310.475862 
L 296.112404 321.361318 
L 297.545455 316.301674 
L 298.978505 321.569106 
L 300.411556 312.831005 
L 301.844606 312.764877 
L 303.277657 320.821176 
L 304.710707 316.437008 
L 306.143758 315.495175 
L 307.576808 319.093938 
L 309.009859 311.417635 
L 310.442909 317.096034 
L 311.87596 319.767043 
L 313.30901 315.627973 
L 314.742061 313.21864 
L 316.175111 319.901606 
L 317.608162 318.504232 
L 319.041212 185.985244 
L 320.474263 188.603463 
L 321.907313 190.209392 
L 323.340364 189.606721 
L 324.773414 192.613954 
L 327.639515 190.96781 
L 329.072566 189.070348 
L 330.505616 191.786561 
L 331.938667 191.861613 
L 333.371717 192.993192 
L 334.804768 188.745836 
L 336.237818 191.795455 
L 337.670869 186.665669 
L 339.103919 187.012857 
L 340.53697 192.994222 
L 341.97002 191.726731 
L 343.403071 188.458629 
L 344.836121 191.906964 
L 346.269172 192.528208 
L 347.702222 186.437462 
L 349.135273 189.201275 
L 350.568323 189.947238 
L 352.001374 187.581709 
L 353.434424 187.408227 
L 354.867475 192.087645 
L 356.300525 192.796505 
L 357.733576 190.262844 
L 359.166626 190.319509 
L 360.599677 189.990054 
L 362.032727 188.0029 
L 363.465778 188.425363 
L 364.898828 186.068538 
L 366.331879 192.785228 
L 367.764929 190.47843 
L 369.19798 190.958581 
L 370.63103 186.997409 
L 372.064081 191.645958 
L 373.497131 192.08917 
L 374.930182 190.129667 
L 376.363232 190.332378 
L 377.796283 191.419309 
L 379.229333 191.637237 
L 380.662384 186.530344 
L 382.095434 190.171244 
L 383.528485 186.999862 
L 384.961535 189.358379 
L 386.394586 193.147923 
L 387.827636 185.953903 
L 389.260687 187.191877 
L 390.693737 186.183565 
L 392.126788 186.506826 
L 393.559838 187.095813 
L 394.992889 192.270389 
L 396.425939 189.848884 
L 397.85899 191.910676 
L 399.29204 190.490419 
L 400.725091 193.086902 
L 402.158141 190.657756 
L 403.591192 186.059866 
L 405.024242 191.520483 
L 406.457293 187.585871 
L 407.890343 190.081175 
L 409.323394 190.32384 
L 410.756444 186.272125 
L 412.189495 185.983172 
L 413.622545 189.317105 
L 415.055596 188.083793 
L 416.488646 192.357702 
L 417.921697 191.28158 
L 419.354747 186.185741 
L 420.787798 189.13957 
L 422.220848 189.420031 
L 423.653899 187.859582 
L 425.086949 193.09805 
L 426.52 189.101675 
L 427.953051 189.718385 
L 429.386101 187.065298 
L 430.819152 192.337714 
L 432.252202 186.245878 
L 433.685253 192.924047 
L 435.118303 192.122413 
L 436.551354 189.019341 
L 437.984404 188.41135 
L 439.417455 191.747969 
L 440.850505 192.622429 
L 442.283556 186.780421 
L 443.716606 191.664469 
L 445.149657 189.023254 
L 446.582707 188.834721 
L 448.015758 190.352524 
L 449.448808 189.105507 
L 450.881859 189.567237 
L 452.314909 186.443589 
L 453.74796 191.982625 
L 455.18101 188.100601 
L 456.614061 191.721565 
L 458.047111 190.530264 
L 459.480162 188.43806 
L 460.913212 191.256638 
L 462.346263 191.133942 
L 463.779313 187.830092 
L 465.212364 192.981438 
L 466.645414 190.056324 
L 468.078465 185.960182 
L 469.511515 185.978062 
L 470.944566 192.975997 
L 472.377616 191.915173 
L 473.810667 191.520503 
L 475.243717 186.454561 
L 476.676768 186.851878 
L 478.109818 186.863965 
L 479.542869 190.729386 
L 480.975919 192.335332 
L 482.40897 187.209186 
L 483.84202 188.196541 
L 485.275071 188.893139 
L 486.708121 186.045274 
L 488.141172 188.572386 
L 489.574222 193.472215 
L 491.007273 187.335375 
L 492.440323 191.261326 
L 493.873374 188.501011 
L 495.306424 186.41156 
L 496.739475 192.513199 
L 499.605576 192.719876 
L 501.038626 189.336401 
L 502.471677 191.466301 
L 503.904727 188.945067 
L 505.337778 188.08983 
L 506.770828 191.987644 
L 508.203879 188.722063 
L 509.636929 191.529728 
L 511.06998 189.826964 
L 512.50303 186.666302 
L 513.936081 187.115469 
L 515.369131 192.831632 
L 516.802182 190.319531 
L 518.235232 191.433451 
L 519.668283 193.504651 
L 521.101333 187.684082 
L 522.534384 188.700259 
L 523.967434 191.545112 
L 525.400485 187.910727 
L 526.833535 189.348103 
L 528.266586 190.288356 
L 529.699636 193.458212 
L 531.132687 192.960958 
L 532.565737 186.834875 
L 533.998788 60.292363 
L 535.431838 63.00967 
L 536.864889 60.818125 
L 538.297939 62.729708 
L 539.73099 66.023917 
L 541.16404 66.180494 
L 542.597091 64.809376 
L 544.030141 60.329877 
L 545.463192 61.109866 
L 546.896242 60.620149 
L 548.329293 60.330308 
L 549.762343 65.553897 
L 551.195394 65.25472 
L 552.628444 66.367431 
L 554.061495 61.231242 
L 555.494545 60.442462 
L 556.927596 64.065332 
L 558.360646 62.440399 
L 559.793697 65.974933 
L 561.226747 60.095564 
L 562.659798 60.590552 
L 564.092848 59.744278 
L 565.525899 60.998779 
L 566.958949 60.463076 
L 568.392 66.958966 
L 569.825051 61.561498 
L 571.258101 64.627935 
L 572.691152 60.088475 
L 574.124202 61.063512 
L 575.557253 60.594659 
L 576.990303 60.998949 
L 578.423354 65.123715 
L 579.856404 61.176202 
L 581.289455 66.327226 
L 582.722505 60.533215 
L 584.155556 60.636144 
L 585.588606 65.460191 
L 587.021657 60.954684 
L 588.454707 63.656408 
L 589.887758 64.832637 
L 591.320808 61.115757 
L 592.753859 65.421049 
L 594.186909 66.967474 
L 595.61996 65.682405 
L 597.05301 64.657687 
L 598.486061 60.592468 
L 599.919111 59.814929 
L 601.352162 65.030297 
L 602.785212 62.282518 
L 604.218263 64.116131 
L 605.651313 59.70679 
L 607.084364 63.080758 
L 608.517414 60.024616 
L 609.950465 66.272278 
L 611.383515 59.788301 
L 612.816566 65.79283 
L 614.249616 59.847951 
L 615.682667 65.133871 
L 617.115717 66.324898 
L 618.548768 63.851593 
L 619.981818 61.62231 
L 621.414869 64.768284 
L 622.847919 62.549995 
L 624.28097 63.268763 
L 625.71402 64.225956 
L 627.147071 62.774612 
L 628.580121 65.215343 
L 630.013172 61.77215 
L 631.446222 67.134098 
L 632.879273 60.128215 
L 634.312323 63.0638 
L 635.745374 61.69143 
L 637.178424 61.520659 
L 638.611475 62.061496 
L 641.477576 66.616306 
L 642.910626 62.109958 
L 644.343677 64.642991 
L 645.776727 64.766477 
L 647.209778 60.716358 
L 648.642828 61.688971 
L 650.075879 64.869556 
L 651.508929 64.801594 
L 652.94198 64.050048 
L 654.37503 64.09549 
L 655.808081 64.904947 
L 657.241131 66.18169 
L 658.674182 63.958646 
L 660.107232 60.016073 
L 661.540283 62.010769 
L 662.973333 60.300879 
L 664.406384 62.479426 
L 665.839434 64.864797 
L 667.272485 62.991873 
L 668.705535 67.143845 
L 670.138586 64.971234 
L 673.004687 62.748854 
L 674.437737 62.18224 
L 675.870788 63.620882 
L 677.303838 63.793991 
L 678.736889 65.526409 
L 680.169939 63.558716 
L 681.60299 60.3132 
L 683.03604 61.110606 
L 684.469091 65.86014 
L 685.902141 66.503912 
L 687.335192 63.238211 
L 688.768242 62.347284 
L 690.201293 64.605165 
L 691.634343 60.940755 
L 694.500444 62.045062 
L 695.933495 65.443456 
L 697.366545 65.636905 
L 698.799596 66.961703 
L 701.665697 63.543928 
L 703.098747 60.703297 
L 704.531798 66.594661 
L 705.964848 64.004185 
L 707.397899 62.371364 
L 708.830949 65.672506 
L 710.264 61.866415 
L 711.697051 63.398023 
L 713.130101 65.29677 
L 714.563152 62.171985 
L 715.996202 67.104876 
L 717.429253 61.452302 
L 718.862303 61.307604 
L 720.295354 66.338663 
L 721.728404 63.923007 
L 723.161455 65.813161 
L 724.594505 59.882593 
L 727.460606 66.766113 
L 728.893657 65.257233 
L 730.326707 60.713923 
L 731.759758 63.685538 
L 733.192808 61.069719 
L 734.625859 62.08463 
L 736.058909 59.655659 
L 737.49196 62.631562 
L 738.92501 59.9427 
L 740.358061 60.387172 
L 741.791111 62.501133 
L 743.224162 61.692613 
L 744.657212 63.319151 
L 746.090263 60.848653 
L 747.523313 62.992368 
L 748.956364 60.343325 
L 748.956364 60.343325 
" clip-path="url(#p264e9dbb7f)" style="fill: none; stroke: #000000; stroke-width: 1.4; stroke-linecap: square"/>
   </g>
   <g id="patch_6">
    <path d="M 71.84 354.04 
L 71.84 25.44 
" style="fill: none; stroke: #000000; stroke-width: 0.8; stroke-linejoin: miter; stroke-linecap: square"/>
   </g>
   <g id="patch_7">
    <path d="M 781.2 354.04 
L 781.2 25.44 
" style="fill: none; stroke: #000000; stroke-width: 0.8; stroke-linejoin: miter; stroke-linecap: square"/>
   </g>
   <g id="patch_8">
    <path d="M 71.84 354.04 
L 781.2 354.04 
" style="fill: none; stroke: #000000; stroke-width: 0.8; stroke-linejoin: miter; stroke-linecap: square"/>
   </g>
   <g id="patch_9">
    <path d="M 71.84 25.44 
L 781.2 25.44 
" style="fill: none; stroke: #000000; stroke-width: 0.8; stroke-linejoin: miter; stroke-linecap: square"/>
   </g>
   <g id="text_11">
    <!-- CivicMind — Auto-Difficulty Escalation (Theme 4) -->
    <g transform="translate(279.175 19.44) scale(0.12 -0.12)">
     <defs>
      <path id="DejaVuSans-43" d="M 4122 4306 
L 4122 3641 
Q 3803 3938 3442 4084 
Q 3081 4231 2675 4231 
Q 1875 4231 1450 3742 
Q 1025 3253 1025 2328 
Q 1025 1406 1450 917 
Q 1875 428 2675 428 
Q 3081 428 3442 575 
Q 3803 722 4122 1019 
L 4122 359 
Q 3791 134 3420 21 
Q 3050 -91 2638 -91 
Q 1578 -91 968 557 
Q 359 1206 359 2328 
Q 359 3453 968 4101 
Q 1578 4750 2638 4750 
Q 3056 4750 3426 4639 
Q 3797 4528 4122 4306 
z
" transform="scale(0.015625)"/>
      <path id="DejaVuSans-2014" d="M 313 1978 
L 6088 1978 
L 6088 1528 
L 313 1528 
L 313 1978 
z
" transform="scale(0.015625)"/>
      <path id="DejaVuSans-41" d="M 2188 4044 
L 1331 1722 
L 3047 1722 
L 2188 4044 
z
M 1831 4666 
L 2547 4666 
L 4325 0 
L 3669 0 
L 3244 1197 
L 1141 1197 
L 716 0 
L 50 0 
L 1831 4666 
z
" transform="scale(0.015625)"/>
      <path id="DejaVuSans-2d" d="M 313 2009 
L 1997 2009 
L 1997 1497 
L 313 1497 
L 313 2009 
z
" transform="scale(0.015625)"/>
      <path id="DejaVuSans-28" d="M 1984 4856 
Q 1566 4138 1362 3434 
Q 1159 2731 1159 2009 
Q 1159 1288 1364 580 
Q 1569 -128 1984 -844 
L 1484 -844 
Q 1016 -109 783 600 
Q 550 1309 550 2009 
Q 550 2706 781 3412 
Q 1013 4119 1484 4856 
L 1984 4856 
z
" transform="scale(0.015625)"/>
      <path id="DejaVuSans-68" d="M 3513 2113 
L 3513 0 
L 2938 0 
L 2938 2094 
Q 2938 2591 2744 2837 
Q 2550 3084 2163 3084 
Q 1697 3084 1428 2787 
Q 1159 2491 1159 1978 
L 1159 0 
L 581 0 
L 581 4863 
L 1159 4863 
L 1159 2956 
Q 1366 3272 1645 3428 
Q 1925 3584 2291 3584 
Q 2894 3584 3203 3211 
Q 3513 2838 3513 2113 
z
" transform="scale(0.015625)"/>
      <path id="DejaVuSans-29" d="M 513 4856 
L 1013 4856 
Q 1481 4119 1714 3412 
Q 1947 2706 1947 2009 
Q 1947 1309 1714 600 
Q 1481 -109 1013 -844 
L 513 -844 
Q 928 -128 1133 580 
Q 1338 1288 1338 2009 
Q 1338 2731 1133 3434 
Q 928 4138 513 4856 
z
" transform="scale(0.015625)"/>
     </defs>
     <use xlink:href="#DejaVuSans-43"/>
     <use xlink:href="#DejaVuSans-69" transform="translate(69.824219 0)"/>
     <use xlink:href="#DejaVuSans-76" transform="translate(97.607422 0)"/>
     <use xlink:href="#DejaVuSans-69" transform="translate(156.787109 0)"/>
     <use xlink:href="#DejaVuSans-63" transform="translate(184.570312 0)"/>
     <use xlink:href="#DejaVuSans-4d" transform="translate(239.550781 0)"/>
     <use xlink:href="#DejaVuSans-69" transform="translate(325.830078 0)"/>
     <use xlink:href="#DejaVuSans-6e" transform="translate(353.613281 0)"/>
     <use xlink:href="#DejaVuSans-64" transform="translate(416.992188 0)"/>
     <use xlink:href="#DejaVuSans-20" transform="translate(480.46875 0)"/>
     <use xlink:href="#DejaVuSans-2014" transform="translate(512.255859 0)"/>
     <use xlink:href="#DejaVuSans-20" transform="translate(612.255859 0)"/>
     <use xlink:href="#DejaVuSans-41" transform="translate(644.042969 0)"/>
     <use xlink:href="#DejaVuSans-75" transform="translate(712.451172 0)"/>
     <use xlink:href="#DejaVuSans-74" transform="translate(775.830078 0)"/>
     <use xlink:href="#DejaVuSans-6f" transform="translate(815.039062 0)"/>
     <use xlink:href="#DejaVuSans-2d" transform="translate(878.095703 0)"/>
     <use xlink:href="#DejaVuSans-44" transform="translate(914.179688 0)"/>
     <use xlink:href="#DejaVuSans-69" transform="translate(991.181641 0)"/>
     <use xlink:href="#DejaVuSans-66" transform="translate(1018.964844 0)"/>
     <use xlink:href="#DejaVuSans-66" transform="translate(1054.169922 0)"/>
     <use xlink:href="#DejaVuSans-69" transform="translate(1089.375 0)"/>
     <use xlink:href="#DejaVuSans-63" transform="translate(1117.158203 0)"/>
     <use xlink:href="#DejaVuSans-75" transform="translate(1172.138672 0)"/>
     <use xlink:href="#DejaVuSans-6c" transform="translate(1235.517578 0)"/>
     <use xlink:href="#DejaVuSans-74" transform="translate(1263.300781 0)"/>
     <use xlink:href="#DejaVuSans-79" transform="translate(1302.509766 0)"/>
     <use xlink:href="#DejaVuSans-20" transform="translate(1361.689453 0)"/>
     <use xlink:href="#DejaVuSans-45" transform="translate(1393.476562 0)"/>
     <use xlink:href="#DejaVuSans-73" transform="translate(1456.660156 0)"/>
     <use xlink:href="#DejaVuSans-63" transform="translate(1508.759766 0)"/>
     <use xlink:href="#DejaVuSans-61" transform="translate(1563.740234 0)"/>
     <use xlink:href="#DejaVuSans-6c" transform="translate(1625.019531 0)"/>
     <use xlink:href="#DejaVuSans-61" transform="translate(1652.802734 0)"/>
     <use xlink:href="#DejaVuSans-74" transform="translate(1714.082031 0)"/>
     <use xlink:href="#DejaVuSans-69" transform="translate(1753.291016 0)"/>
     <use xlink:href="#DejaVuSans-6f" transform="translate(1781.074219 0)"/>
     <use xlink:href="#DejaVuSans-6e" transform="translate(1842.255859 0)"/>
     <use xlink:href="#DejaVuSans-20" transform="translate(1905.634766 0)"/>
     <use xlink:href="#DejaVuSans-28" transform="translate(1937.421875 0)"/>
     <use xlink:href="#DejaVuSans-54" transform="translate(1976.435547 0)"/>
     <use xlink:href="#DejaVuSans-68" transform="translate(2037.519531 0)"/>
     <use xlink:href="#DejaVuSans-65" transform="translate(2100.898438 0)"/>
     <use xlink:href="#DejaVuSans-6d" transform="translate(2162.421875 0)"/>
     <use xlink:href="#DejaVuSans-65" transform="translate(2259.833984 0)"/>
     <use xlink:href="#DejaVuSans-20" transform="translate(2321.357422 0)"/>
     <use xlink:href="#DejaVuSans-34" transform="translate(2353.144531 0)"/>
     <use xlink:href="#DejaVuSans-29" transform="translate(2416.767578 0)"/>
    </g>
   </g>
  </g>
 </g>
 <defs>
  <clipPath id="p264e9dbb7f">
   <rect x="71.84" y="25.44" width="709.36" height="328.6"/>
  </clipPath>
 </defs>
</svg>
