<?xml version="1.0" encoding="utf-8" standalone="no"?>
<!DOCTYPE svg PUBLIC "-//W3C//DTD SVG 1.1//EN"
  "http://www.w3.org/Graphics/SVG/1.1/DTD/svg11.dtd">
<svg xmlns:xlink="http://www.w3.org/1999/xlink" width="792pt" height="396pt" viewBox="0 0 792 396" xmlns="http://www.w3.org/2000/svg" version="1.1">
 <metadata>
  <rdf:RDF xmlns:dc="http://purl.org/dc/elements/1.1/" xmlns:cc="http://creativecommons.org/ns#" xmlns:rdf="http://www.w3.org/1999/02/22-rdf-syntax-ns#">
   <cc:Work>
    <dc:type rdf:resource="http://purl.org/dc/dcmitype/StillImage"/>
    <dc:date>2026-04-25T15:09:45.641730</dc:date>
    <dc:format>image/svg+xml</dc:format>
    <dc:creator>
     <cc:Agent>
      <dc:title>Matplotlib v3.10.6, https://matplotlib.org/</dc:title>
     </cc:Agent>
    </dc:creator>
   </cc:Work>
  </rdf:RDF>
 </metadata>
 <defs>
  <style type="text/css">*{stroke-linejoin: round; stroke-linecap: butt}</style>
 </defs>
 <g id="figure_1">
  <g id="patch_1">
   <path d="M 0 396 
L 792 396 
L 792 0 
L 0 0 
z
" style="fill: #ffffff"/>
  </g>
  <g id="axes_1">
   <g id="patch_2">
    <path d="M 47.81 354.04 
L 781.2 354.04 
L 781.2 25.44 
L 47.81 25.44 
z
" style="fill: #ffffff"/>
   </g>
   <g id="matplotlib.axis_1">
    <g id="xtick_1">
     <g id="line2d_1">
      <path d="M 78.916082 354.04 
L 78.916082 25.44 
" clip-path="url(#p7f4f4e24c6)" style="fill: none; stroke: #b0b0b0; stroke-opacity: 0.3; stroke-width: 0.8; stroke-linecap: square"/>
     </g>
     <g id="line2d_2">
      <defs>
       <path id="mdb9d9a5567" d="M 0 0 
L 0 3.5 
" style="stroke: #000000; stroke-width: 0.8"/>
      </defs>
      <g>
       <use xlink:href="#mdb9d9a5567" x="78.916082" y="354.04" style="stroke: #000000; stroke-width: 0.8"/>
      </g>
     </g>
     <g id="text_1">
      <!-- 0 -->
      <g transform="translate(75.734832 368.638437) scale(0.1 -0.1)">
       <defs>
        <path id="DejaVuSans-30" d="M 2034 4250 
Q 1547 4250 1301 3770 
Q 1056 3291 1056 2328 
Q 1056 1369 1301 889 
Q 1547 409 2034 409 
Q 2525 409 2770 889 
Q 3016 1369 3016 2328 
Q 3016 3291 2770 3770 
Q 2525 4250 2034 4250 
z
M 2034 4750 
Q 2819 4750 3233 4129 
Q 3647 3509 3647 2328 
Q 3647 1150 3233 529 
Q 2819 -91 2034 -91 
Q 1250 -91 836 529 
Q 422 1150 422 2328 
Q 422 3509 836 4129 
Q 1250 4750 2034 4750 
z
" transform="scale(0.015625)"/>
       </defs>
       <use xlink:href="#DejaVuSans-30"/>
      </g>
     </g>
    </g>
    <g id="xtick_2">
     <g id="line2d_3">
      <path d="M 190.407417 354.04 
L 190.407417 25.44 
" clip-path="url(#p7f4f4e24c6)" style="fill: none; stroke: #b0b0b0; stroke-opacity: 0.3; stroke-width: 0.8; stroke-linecap: square"/>
     </g>
     <g id="line2d_4">
      <g>
       <use xlink:href="#mdb9d9a5567" x="190.407417" y="354.04" style="stroke: #000000; stroke-width: 0.8"/>
      </g>
     </g>
     <g id="text_2">
      <!-- 50 -->
      <g transform="translate(184.044917 368.638437) scale(0.1 -0.1)">
       <defs>
        <path id="DejaVuSans-35" d="M 691 4666 
L 3169 4666 
L 3169 4134 
L 1269 4134 
L 1269 2991 
Q 1406 3038 1543 3061 
Q 1681 3084 1819 3084 
Q 2600 3084 3056 2656 
Q 3513 2228 3513 1497 
Q 3513 744 3044 326 
Q 2575 -91 1722 -91 
Q 1428 -91 1123 -41 
Q 819 9 494 109 
L 494 744 
Q 775 591 1075 516 
Q 1375 441 1709 441 
Q 2250 441 2565 725 
Q 2881 1009 2881 1497 
Q 2881 1984 2565 2268 
Q 2250 2553 1709 2553 
Q 1456 2553 1204 2497 
Q 953 2441 691 2322 
L 691 4666 
z
" transform="scale(0.015625)"/>
       </defs>
       <use xlink:href="#DejaVuSans-35"/>
       <use xlink:href="#DejaVuSans-30" transform="translate(63.623047 0)"/>
      </g>
     </g>
    </g>
    <g id="xtick_3">
     <g id="line2d_5">
      <path d="M 301.898752 354.04 
L 301.898752 25.44 
" clip-path="url(#p7f4f4e24c6)" style="fill: none; stroke: #b0b0b0; stroke-opacity: 0.3; stroke-width: 0.8; stroke-linecap: square"/>
     </g>
     <g id="line2d_6">
      <g>
       <use xlink:href="#mdb9d9a5567" x="301.898752" y="354.04" style="stroke: #000000; stroke-width: 0.8"/>
      </g>
     </g>
     <g id="text_3">
      <!-- 100 -->
      <g transform="translate(292.355002 368.638437) scale(0.1 -0.1)">
       <defs>
        <path id="DejaVuSans-31" d="M 794 531 
L 1825 531 
L 1825 4091 
L 703 3866 
L 703 4441 
L 1819 4666 
L 2450 4666 
L 2450 531 
L 3481 531 
L 3481 0 
L 794 0 
L 794 531 
z
" transform="scale(0.015625)"/>
       </defs>
       <use xlink:href="#DejaVuSans-31"/>
       <use xlink:href="#DejaVuSans-30" transform="translate(63.623047 0)"/>
       <use xlink:href="#DejaVuSans-30" transform="translate(127.246094 0)"/>
      </g>
     </g>
    </g>
    <g id="xtick_4">
     <g id="line2d_7">
      <path d="M 413.390087 354.04 
L 413.390087 25.44 
" clip-path="url(#p7f4f4e24c6)" style="fill: none; stroke: #b0b0b0; stroke-opacity: 0.3; stroke-width: 0.8; stroke-linecap: square"/>
     </g>
     <g id="line2d_8">
      <g>
       <use xlink:href="#mdb9d9a5567" x="413.390087" y="354.04" style="stroke: #000000; stroke-width: 0.8"/>
      </g>
     </g>
     <g id="text_4">
      <!-- 150 -->
      <g transform="translate(403.846337 368.638437) scale(0.1 -0.1)">
       <use xlink:href="#DejaVuSans-31"/>
       <use xlink:href="#DejaVuSans-35" transform="translate(63.623047 0)"/>
       <use xlink:href="#DejaVuSans-30" transform="translate(127.246094 0)"/>
      </g>
     </g>
    </g>
    <g id="xtick_5">
     <g id="line2d_9">
      <path d="M 524.881421 354.04 
L 524.881421 25.44 
" clip-path="url(#p7f4f4e24c6)" style="fill: none; stroke: #b0b0b0; stroke-opacity: 0.3; stroke-width: 0.8; stroke-linecap: square"/>
     </g>
     <g id="line2d_10">
      <g>
       <use xlink:href="#mdb9d9a5567" x="524.881421" y="354.04" style="stroke: #000000; stroke-width: 0.8"/>
      </g>
     </g>
     <g id="text_5">
      <!-- 200 -->
      <g transform="translate(515.337671 368.638437) scale(0.1 -0.1)">
       <defs>
        <path id="DejaVuSans-32" d="M 1228 531 
L 3431 531 
L 3431 0 
L 469 0 
L 469 531 
Q 828 903 1448 1529 
Q 2069 2156 2228 2338 
Q 2531 2678 2651 2914 
Q 2772 3150 2772 3378 
Q 2772 3750 2511 3984 
Q 2250 4219 1831 4219 
Q 1534 4219 1204 4116 
Q 875 4013 500 3803 
L 500 4441 
Q 881 4594 1212 4672 
Q 1544 4750 1819 4750 
Q 2544 4750 2975 4387 
Q 3406 4025 3406 3419 
Q 3406 3131 3298 2873 
Q 3191 2616 2906 2266 
Q 2828 2175 2409 1742 
Q 1991 1309 1228 531 
z
" transform="scale(0.015625)"/>
       </defs>
       <use xlink:href="#DejaVuSans-32"/>
       <use xlink:href="#DejaVuSans-30" transform="translate(63.623047 0)"/>
       <use xlink:href="#DejaVuSans-30" transform="translate(127.246094 0)"/>
      </g>
     </g>
    </g>
    <g id="xtick_6">
     <g id="line2d_11">
      <path d="M 636.372756 354.04 
L 636.372756 25.44 
" clip-path="url(#p7f4f4e24c6)" style="fill: none; stroke: #b0b0b0; stroke-opacity: 0.3; stroke-width: 0.8; stroke-linecap: square"/>
     </g>
     <g id="line2d_12">
      <g>
       <use xlink:href="#mdb9d9a5567" x="636.372756" y="354.04" style="stroke: #000000; stroke-width: 0.8"/>
      </g>
     </g>
     <g id="text_6">
      <!-- 250 -->
      <g transform="translate(626.829006 368.638437) scale(0.1 -0.1)">
       <use xlink:href="#DejaVuSans-32"/>
       <use xlink:href="#DejaVuSans-35" transform="translate(63.623047 0)"/>
       <use xlink:href="#DejaVuSans-30" transform="translate(127.246094 0)"/>
      </g>
     </g>
    </g>
    <g id="xtick_7">
     <g id="line2d_13">
      <path d="M 747.864091 354.04 
L 747.864091 25.44 
" clip-path="url(#p7f4f4e24c6)" style="fill: none; stroke: #b0b0b0; stroke-opacity: 0.3; stroke-width: 0.8; stroke-linecap: square"/>
     </g>
     <g id="line2d_14">
      <g>
       <use xlink:href="#mdb9d9a5567" x="747.864091" y="354.04" style="stroke: #000000; stroke-width: 0.8"/>
      </g>
     </g>
     <g id="text_7">
      <!-- 300 -->
      <g transform="translate(738.320341 368.638437) scale(0.1 -0.1)">
       <defs>
        <path id="DejaVuSans-33" d="M 2597 2516 
Q 3050 2419 3304 2112 
Q 3559 1806 3559 1356 
Q 3559 666 3084 287 
Q 2609 -91 1734 -91 
Q 1441 -91 1130 -33 
Q 819 25 488 141 
L 488 750 
Q 750 597 1062 519 
Q 1375 441 1716 441 
Q 2309 441 2620 675 
Q 2931 909 2931 1356 
Q 2931 1769 2642 2001 
Q 2353 2234 1838 2234 
L 1294 2234 
L 1294 2753 
L 1863 2753 
Q 2328 2753 2575 2939 
Q 2822 3125 2822 3475 
Q 2822 3834 2567 4026 
Q 2313 4219 1838 4219 
Q 1578 4219 1281 4162 
Q 984 4106 628 3988 
L 628 4550 
Q 988 4650 1302 4700 
Q 1616 4750 1894 4750 
Q 2613 4750 3031 4423 
Q 3450 4097 3450 3541 
Q 3450 3153 3228 2886 
Q 3006 2619 2597 2516 
z
" transform="scale(0.015625)"/>
       </defs>
       <use xlink:href="#DejaVuSans-33"/>
       <use xlink:href="#DejaVuSans-30" transform="translate(63.623047 0)"/>
       <use xlink:href="#DejaVuSans-30" transform="translate(127.246094 0)"/>
      </g>
     </g>
    </g>
    <g id="text_8">
     <!-- Training Episode -->
     <g transform="translate(373.552656 382.316562) scale(0.1 -0.1)">
      <defs>
       <path id="DejaVuSans-54" d="M -19 4666 
L 3928 4666 
L 3928 4134 
L 2272 4134 
L 2272 0 
L 1638 0 
L 1638 4134 
L -19 4134 
L -19 4666 
z
" transform="scale(0.015625)"/>
       <path id="DejaVuSans-72" d="M 2631 2963 
Q 2534 3019 2420 3045 
Q 2306 3072 2169 3072 
Q 1681 3072 1420 2755 
Q 1159 2438 1159 1844 
L 1159 0 
L 581 0 
L 581 3500 
L 1159 3500 
L 1159 2956 
Q 1341 3275 1631 3429 
Q 1922 3584 2338 3584 
Q 2397 3584 2469 3576 
Q 2541 3569 2628 3553 
L 2631 2963 
z
" transform="scale(0.015625)"/>
       <path id="DejaVuSans-61" d="M 2194 1759 
Q 1497 1759 1228 1600 
Q 959 1441 959 1056 
Q 959 750 1161 570 
Q 1363 391 1709 391 
Q 2188 391 2477 730 
Q 2766 1069 2766 1631 
L 2766 1759 
L 2194 1759 
z
M 3341 1997 
L 3341 0 
L 2766 0 
L 2766 531 
Q 2569 213 2275 61 
Q 1981 -91 1556 -91 
Q 1019 -91 701 211 
Q 384 513 384 1019 
Q 384 1609 779 1909 
Q 1175 2209 1959 2209 
L 2766 2209 
L 2766 2266 
Q 2766 2663 2505 2880 
Q 2244 3097 1772 3097 
Q 1472 3097 1187 3025 
Q 903 2953 641 2809 
L 641 3341 
Q 956 3463 1253 3523 
Q 1550 3584 1831 3584 
Q 2591 3584 2966 3190 
Q 3341 2797 3341 1997 
z
" transform="scale(0.015625)"/>
       <path id="DejaVuSans-69" d="M 603 3500 
L 1178 3500 
L 1178 0 
L 603 0 
L 603 3500 
z
M 603 4863 
L 1178 4863 
L 1178 4134 
L 603 4134 
L 603 4863 
z
" transform="scale(0.015625)"/>
       <path id="DejaVuSans-6e" d="M 3513 2113 
L 3513 0 
L 2938 0 
L 2938 2094 
Q 2938 2591 2744 2837 
Q 2550 3084 2163 3084 
Q 1697 3084 1428 2787 
Q 1159 2491 1159 1978 
L 1159 0 
L 581 0 
L 581 3500 
L 1159 3500 
L 1159 2956 
Q 1366 3272 1645 3428 
Q 1925 3584 2291 3584 
Q 2894 3584 3203 3211 
Q 3513 2838 3513 2113 
z
" transform="scale(0.015625)"/>
       <path id="DejaVuSans-67" d="M 2906 1791 
Q 2906 2416 2648 2759 
Q 2391 3103 1925 3103 
Q 1463 3103 1205 2759 
Q 947 2416 947 1791 
Q 947 1169 1205 825 
Q 1463 481 1925 481 
Q 2391 481 2648 825 
Q 2906 1169 2906 1791 
z
M 3481 434 
Q 3481 -459 3084 -895 
Q 2688 -1331 1869 -1331 
Q 1566 -1331 1297 -1286 
Q 1028 -1241 775 -1147 
L 775 -588 
Q 1028 -725 1275 -790 
Q 1522 -856 1778 -856 
Q 2344 -856 2625 -561 
Q 2906 -266 2906 331 
L 2906 616 
Q 2728 306 2450 153 
Q 2172 0 1784 0 
Q 1141 0 747 490 
Q 353 981 353 1791 
Q 353 2603 747 3093 
Q 1141 3584 1784 3584 
Q 2172 3584 2450 3431 
Q 2728 3278 2906 2969 
L 2906 3500 
L 3481 3500 
L 3481 434 
z
" transform="scale(0.015625)"/>
       <path id="DejaVuSans-20" transform="scale(0.015625)"/>
       <path id="DejaVuSans-45" d="M 628 4666 
L 3578 4666 
L 3578 4134 
L 1259 4134 
L 1259 2753 
L 3481 2753 
L 3481 2222 
L 1259 2222 
L 1259 531 
L 3634 531 
L 3634 0 
L 628 0 
L 628 4666 
z
" transform="scale(0.015625)"/>
       <path id="DejaVuSans-70" d="M 1159 525 
L 1159 -1331 
L 581 -1331 
L 581 3500 
L 1159 3500 
L 1159 2969 
Q 1341 3281 1617 3432 
Q 1894 3584 2278 3584 
Q 2916 3584 3314 3078 
Q 3713 2572 3713 1747 
Q 3713 922 3314 415 
Q 2916 -91 2278 -91 
Q 1894 -91 1617 61 
Q 1341 213 1159 525 
z
M 3116 1747 
Q 3116 2381 2855 2742 
Q 2594 3103 2138 3103 
Q 1681 3103 1420 2742 
Q 1159 2381 1159 1747 
Q 1159 1113 1420 752 
Q 1681 391 2138 391 
Q 2594 391 2855 752 
Q 3116 1113 3116 1747 
z
" transform="scale(0.015625)"/>
       <path id="DejaVuSans-73" d="M 2834 3397 
L 2834 2853 
Q 2591 2978 2328 3040 
Q 2066 3103 1784 3103 
Q 1356 3103 1142 2972 
Q 928 2841 928 2578 
Q 928 2378 1081 2264 
Q 1234 2150 1697 2047 
L 1894 2003 
Q 2506 1872 2764 1633 
Q 3022 1394 3022 966 
Q 3022 478 2636 193 
Q 2250 -91 1575 -91 
Q 1294 -91 989 -36 
Q 684 19 347 128 
L 347 722 
Q 666 556 975 473 
Q 1284 391 1588 391 
Q 1994 391 2212 530 
Q 2431 669 2431 922 
Q 2431 1156 2273 1281 
Q 2116 1406 1581 1522 
L 1381 1569 
Q 847 1681 609 1914 
Q 372 2147 372 2553 
Q 372 3047 722 3315 
Q 1072 3584 1716 3584 
Q 2034 3584 2315 3537 
Q 2597 3491 2834 3397 
z
" transform="scale(0.015625)"/>
       <path id="DejaVuSans-6f" d="M 1959 3097 
Q 1497 3097 1228 2736 
Q 959 2375 959 1747 
Q 959 1119 1226 758 
Q 1494 397 1959 397 
Q 2419 397 2687 759 
Q 2956 1122 2956 1747 
Q 2956 2369 2687 2733 
Q 2419 3097 1959 3097 
z
M 1959 3584 
Q 2709 3584 3137 3096 
Q 3566 2609 3566 1747 
Q 3566 888 3137 398 
Q 2709 -91 1959 -91 
Q 1206 -91 779 398 
Q 353 888 353 1747 
Q 353 2609 779 3096 
Q 1206 3584 1959 3584 
z
" transform="scale(0.015625)"/>
       <path id="DejaVuSans-64" d="M 2906 2969 
L 2906 4863 
L 3481 4863 
L 3481 0 
L 2906 0 
L 2906 525 
Q 2725 213 2448 61 
Q 2172 -91 1784 -91 
Q 1150 -91 751 415 
Q 353 922 353 1747 
Q 353 2572 751 3078 
Q 1150 3584 1784 3584 
Q 2172 3584 2448 3432 
Q 2725 3281 2906 2969 
z
M 947 1747 
Q 947 1113 1208 752 
Q 1469 391 1925 391 
Q 2381 391 2643 752 
Q 2906 1113 2906 1747 
Q 2906 2381 2643 2742 
Q 2381 3103 1925 3103 
Q 1469 3103 1208 2742 
Q 947 2381 947 1747 
z
" transform="scale(0.015625)"/>
       <path id="DejaVuSans-65" d="M 3597 1894 
L 3597 1613 
L 953 1613 
Q 991 1019 1311 708 
Q 1631 397 2203 397 
Q 2534 397 2845 478 
Q 3156 559 3463 722 
L 3463 178 
Q 3153 47 2828 -22 
Q 2503 -91 2169 -91 
Q 1331 -91 842 396 
Q 353 884 353 1716 
Q 353 2575 817 3079 
Q 1281 3584 2069 3584 
Q 2775 3584 3186 3129 
Q 3597 2675 3597 1894 
z
M 3022 2063 
Q 3016 2534 2758 2815 
Q 2500 3097 2075 3097 
Q 1594 3097 1305 2825 
Q 1016 2553 972 2059 
L 3022 2063 
z
" transform="scale(0.015625)"/>
      </defs>
      <use xlink:href="#DejaVuSans-54"/>
      <use xlink:href="#DejaVuSans-72" transform="translate(46.333984 0)"/>
      <use xlink:href="#DejaVuSans-61" transform="translate(87.447266 0)"/>
      <use xlink:href="#DejaVuSans-69" transform="translate(148.726562 0)"/>
      <use xlink:href="#DejaVuSans-6e" transform="translate(176.509766 0)"/>
      <use xlink:href="#DejaVuSans-69" transform="translate(239.888672 0)"/>
      <use xlink:href="#DejaVuSans-6e" transform="translate(267.671875 0)"/>
      <use xlink:href="#DejaVuSans-67" transform="translate(331.050781 0)"/>
      <use xlink:href="#DejaVuSans-20" transform="translate(394.527344 0)"/>
      <use xlink:href="#DejaVuSans-45" transform="translate(426.314453 0)"/>
      <use xlink:href="#DejaVuSans-70" transform="translate(489.498047 0)"/>
      <use xlink:href="#DejaVuSans-69" transform="translate(552.974609 0)"/>
      <use xlink:href="#DejaVuSans-73" transform="translate(580.757812 0)"/>
      <use xlink:href="#DejaVuSans-6f" transform="translate(632.857422 0)"/>
      <use xlink:href="#DejaVuSans-64" transform="translate(694.039062 0)"/>
      <use xlink:href="#DejaVuSans-65" transform="translate(757.515625 0)"/>
     </g>
    </g>
   </g>
   <g id="matplotlib.axis_2">
    <g id="ytick_1">
     <g id="line2d_15">
      <path d="M 47.81 304.696049 
L 781.2 304.696049 
" clip-path="url(#p7f4f4e24c6)" style="fill: none; stroke: #b0b0b0; stroke-opacity: 0.3; stroke-width: 0.8; stroke-linecap: square"/>
     </g>
     <g id="line2d_16">
      <defs>
       <path id="m9e7bcaaf85" d="M 0 0 
L -3.5 0 
" style="stroke: #000000; stroke-width: 0.8"/>
      </defs>
      <g>
       <use xlink:href="#m9e7bcaaf85" x="47.81" y="304.696049" style="stroke: #000000; stroke-width: 0.8"/>
      </g>
     </g>
     <g id="text_9">
      <!-- 0.0 -->
      <g transform="translate(24.906875 308.495268) scale(0.1 -0.1)">
       <defs>
        <path id="DejaVuSans-2e" d="M 684 794 
L 1344 794 
L 1344 0 
L 684 0 
L 684 794 
z
" transform="scale(0.015625)"/>
       </defs>
       <use xlink:href="#DejaVuSans-30"/>
       <use xlink:href="#DejaVuSans-2e" transform="translate(63.623047 0)"/>
       <use xlink:href="#DejaVuSans-30" transform="translate(95.410156 0)"/>
      </g>
     </g>
    </g>
    <g id="ytick_2">
     <g id="line2d_17">
      <path d="M 47.81 235.762607 
L 781.2 235.762607 
" clip-path="url(#p7f4f4e24c6)" style="fill: none; stroke: #b0b0b0; stroke-opacity: 0.3; stroke-width: 0.8; stroke-linecap: square"/>
     </g>
     <g id="line2d_18">
      <g>
       <use xlink:href="#m9e7bcaaf85" x="47.81" y="235.762607" style="stroke: #000000; stroke-width: 0.8"/>
      </g>
     </g>
     <g id="text_10">
      <!-- 0.2 -->
      <g transform="translate(24.906875 239.561826) scale(0.1 -0.1)">
       <use xlink:href="#DejaVuSans-30"/>
       <use xlink:href="#DejaVuSans-2e" transform="translate(63.623047 0)"/>
       <use xlink:href="#DejaVuSans-32" transform="translate(95.410156 0)"/>
      </g>
     </g>
    </g>
    <g id="ytick_3">
     <g id="line2d_19">
      <path d="M 47.81 166.829164 
L 781.2 166.829164 
" clip-path="url(#p7f4f4e24c6)" style="fill: none; stroke: #b0b0b0; stroke-opacity: 0.3; stroke-width: 0.8; stroke-linecap: square"/>
     </g>
     <g id="line2d_20">
      <g>
       <use xlink:href="#m9e7bcaaf85" x="47.81" y="166.829164" style="stroke: #000000; stroke-width: 0.8"/>
      </g>
     </g>
     <g id="text_11">
      <!-- 0.4 -->
      <g transform="translate(24.906875 170.628383) scale(0.1 -0.1)">
       <defs>
        <path id="DejaVuSans-34" d="M 2419 4116 
L 825 1625 
L 2419 1625 
L 2419 4116 
z
M 2253 4666 
L 3047 4666 
L 3047 1625 
L 3713 1625 
L 3713 1100 
L 3047 1100 
L 3047 0 
L 2419 0 
L 2419 1100 
L 313 1100 
L 313 1709 
L 2253 4666 
z
" transform="scale(0.015625)"/>
       </defs>
       <use xlink:href="#DejaVuSans-30"/>
       <use xlink:href="#DejaVuSans-2e" transform="translate(63.623047 0)"/>
       <use xlink:href="#DejaVuSans-34" transform="translate(95.410156 0)"/>
      </g>
     </g>
    </g>
    <g id="ytick_4">
     <g id="line2d_21">
      <path d="M 47.81 97.895722 
L 781.2 97.895722 
" clip-path="url(#p7f4f4e24c6)" style="fill: none; stroke: #b0b0b0; stroke-opacity: 0.3; stroke-width: 0.8; stroke-linecap: square"/>
     </g>
     <g id="line2d_22">
      <g>
       <use xlink:href="#m9e7bcaaf85" x="47.81" y="97.895722" style="stroke: #000000; stroke-width: 0.8"/>
      </g>
     </g>
     <g id="text_12">
      <!-- 0.6 -->
      <g transform="translate(24.906875 101.694941) scale(0.1 -0.1)">
       <defs>
        <path id="DejaVuSans-36" d="M 2113 2584 
Q 1688 2584 1439 2293 
Q 1191 2003 1191 1497 
Q 1191 994 1439 701 
Q 1688 409 2113 409 
Q 2538 409 2786 701 
Q 3034 994 3034 1497 
Q 3034 2003 2786 2293 
Q 2538 2584 2113 2584 
z
M 3366 4563 
L 3366 3988 
Q 3128 4100 2886 4159 
Q 2644 4219 2406 4219 
Q 1781 4219 1451 3797 
Q 1122 3375 1075 2522 
Q 1259 2794 1537 2939 
Q 1816 3084 2150 3084 
Q 2853 3084 3261 2657 
Q 3669 2231 3669 1497 
Q 3669 778 3244 343 
Q 2819 -91 2113 -91 
Q 1303 -91 875 529 
Q 447 1150 447 2328 
Q 447 3434 972 4092 
Q 1497 4750 2381 4750 
Q 2619 4750 2861 4703 
Q 3103 4656 3366 4563 
z
" transform="scale(0.015625)"/>
       </defs>
       <use xlink:href="#DejaVuSans-30"/>
       <use xlink:href="#DejaVuSans-2e" transform="translate(63.623047 0)"/>
       <use xlink:href="#DejaVuSans-36" transform="translate(95.410156 0)"/>
      </g>
     </g>
    </g>
    <g id="ytick_5">
     <g id="line2d_23">
      <path d="M 47.81 28.96228 
L 781.2 28.96228 
" clip-path="url(#p7f4f4e24c6)" style="fill: none; stroke: #b0b0b0; stroke-opacity: 0.3; stroke-width: 0.8; stroke-linecap: square"/>
     </g>
     <g id="line2d_24">
      <g>
       <use xlink:href="#m9e7bcaaf85" x="47.81" y="28.96228" style="stroke: #000000; stroke-width: 0.8"/>
      </g>
     </g>
     <g id="text_13">
      <!-- 0.8 -->
      <g transform="translate(24.906875 32.761498) scale(0.1 -0.1)">
       <defs>
        <path id="DejaVuSans-38" d="M 2034 2216 
Q 1584 2216 1326 1975 
Q 1069 1734 1069 1313 
Q 1069 891 1326 650 
Q 1584 409 2034 409 
Q 2484 409 2743 651 
Q 3003 894 3003 1313 
Q 3003 1734 2745 1975 
Q 2488 2216 2034 2216 
z
M 1403 2484 
Q 997 2584 770 2862 
Q 544 3141 544 3541 
Q 544 4100 942 4425 
Q 1341 4750 2034 4750 
Q 2731 4750 3128 4425 
Q 3525 4100 3525 3541 
Q 3525 3141 3298 2862 
Q 3072 2584 2669 2484 
Q 3125 2378 3379 2068 
Q 3634 1759 3634 1313 
Q 3634 634 3220 271 
Q 2806 -91 2034 -91 
Q 1263 -91 848 271 
Q 434 634 434 1313 
Q 434 1759 690 2068 
Q 947 2378 1403 2484 
z
M 1172 3481 
Q 1172 3119 1398 2916 
Q 1625 2713 2034 2713 
Q 2441 2713 2670 2916 
Q 2900 3119 2900 3481 
Q 2900 3844 2670 4047 
Q 2441 4250 2034 4250 
Q 1625 4250 1398 4047 
Q 1172 3844 1172 3481 
z
" transform="scale(0.015625)"/>
       </defs>
       <use xlink:href="#DejaVuSans-30"/>
       <use xlink:href="#DejaVuSans-2e" transform="translate(63.623047 0)"/>
       <use xlink:href="#DejaVuSans-38" transform="translate(95.410156 0)"/>
      </g>
     </g>
    </g>
    <g id="text_14">
     <!-- Episode Reward -->
     <g transform="translate(18.827187 229.587656) rotate(-90) scale(0.1 -0.1)">
      <defs>
       <path id="DejaVuSans-52" d="M 2841 2188 
Q 3044 2119 3236 1894 
Q 3428 1669 3622 1275 
L 4263 0 
L 3584 0 
L 2988 1197 
Q 2756 1666 2539 1819 
Q 2322 1972 1947 1972 
L 1259 1972 
L 1259 0 
L 628 0 
L 628 4666 
L 2053 4666 
Q 2853 4666 3247 4331 
Q 3641 3997 3641 3322 
Q 3641 2881 3436 2590 
Q 3231 2300 2841 2188 
z
M 1259 4147 
L 1259 2491 
L 2053 2491 
Q 2509 2491 2742 2702 
Q 2975 2913 2975 3322 
Q 2975 3731 2742 3939 
Q 2509 4147 2053 4147 
L 1259 4147 
z
" transform="scale(0.015625)"/>
       <path id="DejaVuSans-77" d="M 269 3500 
L 844 3500 
L 1563 769 
L 2278 3500 
L 2956 3500 
L 3675 769 
L 4391 3500 
L 4966 3500 
L 4050 0 
L 3372 0 
L 2619 2869 
L 1863 0 
L 1184 0 
L 269 3500 
z
" transform="scale(0.015625)"/>
      </defs>
      <use xlink:href="#DejaVuSans-45"/>
      <use xlink:href="#DejaVuSans-70" transform="translate(63.183594 0)"/>
      <use xlink:href="#DejaVuSans-69" transform="translate(126.660156 0)"/>
      <use xlink:href="#DejaVuSans-73" transform="translate(154.443359 0)"/>
      <use xlink:href="#DejaVuSans-6f" transform="translate(206.542969 0)"/>
      <use xlink:href="#DejaVuSans-64" transform="translate(267.724609 0)"/>
      <use xlink:href="#DejaVuSans-65" transform="translate(331.201172 0)"/>
      <use xlink:href="#DejaVuSans-20" transform="translate(392.724609 0)"/>
      <use xlink:href="#DejaVuSans-52" transform="translate(424.511719 0)"/>
      <use xlink:href="#DejaVuSans-65" transform="translate(489.494141 0)"/>
      <use xlink:href="#DejaVuSans-77" transform="translate(551.017578 0)"/>
      <use xlink:href="#DejaVuSans-61" transform="translate(632.804688 0)"/>
      <use xlink:href="#DejaVuSans-72" transform="translate(694.083984 0)"/>
      <use xlink:href="#DejaVuSans-64" transform="translate(733.447266 0)"/>
     </g>
    </g>
   </g>
   <g id="line2d_25">
    <path d="M 81.145909 273.045935 
L 83.375736 336.576654 
L 85.605562 310.724694 
L 87.835389 316.082744 
L 90.065216 263.011526 
L 92.295043 269.191933 
L 94.524869 246.911257 
L 96.754696 330.173281 
L 98.984523 295.535985 
L 101.214349 336.081733 
L 103.444176 316.555568 
L 105.674003 286.908951 
L 107.903829 336.418947 
L 110.133656 318.602925 
L 112.363483 271.964613 
L 114.59331 282.815732 
L 116.823136 316.369174 
L 119.052963 278.232602 
L 121.28279 255.467529 
L 123.512616 338.490798 
L 125.742443 255.840928 
L 127.97227 266.975043 
L 130.202096 303.980811 
L 132.431923 323.086165 
L 134.66175 240.186782 
L 136.891576 304.358839 
L 139.121403 329.572835 
L 141.35123 329.162281 
L 143.581057 251.531714 
L 145.810883 276.7374 
L 148.04071 255.705575 
L 150.270537 263.708384 
L 152.500363 283.716698 
L 154.73019 238.542441 
L 156.960017 300.022254 
L 159.189843 282.081679 
L 161.41967 253.402193 
L 163.649497 275.207727 
L 165.879324 250.062136 
L 168.10915 279.464464 
L 170.338977 266.309927 
L 172.568804 334.424522 
L 174.79863 315.598052 
L 177.028457 309.240008 
L 179.258284 330.912267 
L 181.48811 315.092155 
L 183.717937 328.719206 
L 185.947764 310.420254 
L 188.17759 273.432895 
L 190.407417 301.439064 
L 192.637244 300.885998 
L 194.867071 317.499709 
L 197.096897 311.55722 
L 199.326724 242.312533 
L 201.556551 272.155806 
L 203.786377 276.178525 
L 206.016204 321.467006 
L 208.246031 263.77094 
L 210.475857 322.266926 
L 212.705684 299.927016 
L 214.935511 236.845894 
L 217.165337 272.986691 
L 219.395164 281.574076 
L 221.624991 268.373545 
L 223.854818 252.011744 
L 226.084644 258.924253 
L 228.314471 315.479162 
L 230.544298 335.8436 
L 232.774124 306.544874 
L 235.003951 311.47832 
L 237.233778 317.34711 
L 239.463604 241.665752 
L 241.693431 248.546215 
L 243.923258 306.625026 
L 246.153085 271.390305 
L 248.382911 298.254367 
L 250.612738 244.5984 
L 252.842565 291.717414 
L 255.072391 311.774118 
L 257.302218 313.661446 
L 259.532045 281.117214 
L 261.761871 311.995245 
L 266.221525 246.327737 
L 268.451351 297.864693 
L 270.681178 316.484968 
L 272.911005 236.017219 
L 275.140832 286.477668 
L 277.370658 329.762722 
L 279.600485 334.29093 
L 281.830312 327.825032 
L 284.060138 274.284747 
L 286.289965 257.261635 
L 290.749618 332.593995 
L 292.979445 299.703274 
L 295.209272 236.163657 
L 297.439099 284.452261 
L 299.668925 238.753107 
L 301.898752 250.158008 
L 304.128579 337.975631 
L 306.358405 264.640016 
L 308.588232 268.673807 
L 310.818059 283.63995 
L 313.047885 311.573002 
L 315.277712 272.887216 
L 317.507539 327.628258 
L 319.737365 294.207972 
L 321.967192 292.247665 
L 324.197019 240.538048 
L 326.426846 248.599433 
L 328.656672 311.9283 
L 330.886499 287.402085 
L 333.116326 320.690137 
L 335.346152 244.796903 
L 337.575979 249.151008 
L 339.805806 308.30353 
L 342.035632 273.095288 
L 344.265459 276.195151 
L 346.495286 323.359165 
L 348.725112 260.319029 
L 350.954939 283.390891 
L 353.184766 258.652665 
L 355.414593 284.324114 
L 357.644419 339.103636 
L 359.874246 305.644981 
L 362.104073 337.148872 
L 364.333899 243.093822 
L 366.563726 248.302785 
L 368.793553 253.168419 
L 371.023379 307.36576 
L 373.253206 333.173299 
L 375.483033 248.376434 
L 377.71286 241.248043 
L 379.942686 330.30619 
L 382.172513 288.911277 
L 384.40234 332.006185 
L 386.632166 260.516382 
L 388.861993 259.975365 
L 391.09182 325.887072 
L 393.321646 290.018495 
L 395.551473 282.312989 
L 397.7813 311.755872 
L 400.011126 248.953051 
L 402.240953 295.410238 
L 404.47078 317.262801 
L 406.700607 283.399467 
L 408.930433 263.687779 
L 411.16026 318.363718 
L 413.390087 306.931255 
L 415.619913 236.264164 
L 417.84974 271.965273 
L 420.079567 293.86315 
L 422.309393 285.645344 
L 424.53922 326.650917 
L 426.769047 315.929029 
L 428.998874 304.204668 
L 431.2287 278.331553 
L 433.458527 315.36887 
L 435.688354 316.392257 
L 437.91818 331.822074 
L 440.148007 273.906621 
L 442.377834 315.490153 
L 444.60766 245.542193 
L 446.837487 250.276329 
L 449.067314 331.836109 
L 451.29714 314.553052 
L 453.526967 269.990359 
L 455.756794 317.01065 
L 457.986621 325.481704 
L 460.216447 242.430445 
L 462.446274 280.116821 
L 464.676101 290.288509 
L 466.905927 258.032994 
L 469.135754 255.667449 
L 471.365581 319.474354 
L 473.595407 329.140108 
L 475.825234 294.592008 
L 478.055061 295.364672 
L 480.284888 290.872343 
L 482.514714 263.776208 
L 484.744541 269.536766 
L 486.974368 237.399927 
L 489.204194 328.986347 
L 491.434021 297.531664 
L 493.663848 304.078826 
L 495.893674 250.065689 
L 498.123501 313.451665 
L 500.353328 319.495138 
L 502.583154 292.776056 
L 504.812981 295.54014 
L 507.042808 310.361157 
L 509.272635 313.332743 
L 511.502461 243.696956 
L 513.732288 293.342979 
L 515.962115 250.099132 
L 518.191941 282.259043 
L 520.421768 333.931929 
L 522.651595 235.8368 
L 524.881421 252.717381 
L 527.111248 238.968399 
L 529.341075 243.376273 
L 531.570901 251.407493 
L 533.800728 321.966174 
L 536.030555 288.947399 
L 538.260382 317.061265 
L 540.490208 297.695139 
L 542.720035 333.099861 
L 544.949862 299.976888 
L 547.179688 237.281675 
L 549.409515 311.740731 
L 551.639342 258.089742 
L 553.869168 292.114831 
L 556.098995 295.423727 
L 558.328822 240.17597 
L 560.558649 236.235902 
L 562.788475 281.696235 
L 565.018302 264.879237 
L 567.248129 323.156753 
L 569.477955 308.483133 
L 571.707782 238.998064 
L 573.937609 279.275434 
L 576.167435 283.099698 
L 578.397262 261.821975 
L 580.627089 333.251872 
L 582.856915 278.758712 
L 585.086742 287.167959 
L 587.316569 250.991394 
L 589.546396 322.884201 
L 591.776222 239.818075 
L 594.006049 330.879232 
L 596.235876 319.948439 
L 598.465702 277.636043 
L 600.695529 269.345682 
L 602.925356 314.842649 
L 605.155182 326.766475 
L 607.385009 247.106917 
L 609.614836 313.704063 
L 611.844663 277.689393 
L 614.074489 275.118621 
L 616.304316 295.814846 
L 618.534143 278.81096 
L 620.763969 285.106952 
L 622.993796 242.513991 
L 625.223623 318.042336 
L 627.453449 265.108421 
L 629.683276 314.482604 
L 631.913103 298.238449 
L 634.142929 269.709892 
L 636.372756 308.143023 
L 638.602583 306.469997 
L 640.83241 261.419859 
L 643.062236 331.661801 
L 645.292063 291.775972 
L 647.52189 235.922418 
L 649.751716 236.166235 
L 651.981543 331.5876 
L 654.21137 317.12258 
L 656.441196 311.741004 
L 658.671023 242.663598 
L 660.90085 248.081271 
L 663.130676 248.246084 
L 665.360503 300.953609 
L 667.59033 322.851722 
L 669.820157 252.953406 
L 672.049983 266.416627 
L 674.27981 275.915189 
L 676.509637 237.08271 
L 678.739463 271.541512 
L 680.96929 338.35386 
L 683.199117 254.674069 
L 685.428943 308.206959 
L 687.65877 270.568269 
L 689.888597 242.077254 
L 692.118424 325.277047 
L 694.34825 327.227427 
L 696.578077 328.095233 
L 698.807904 281.959356 
L 701.03773 311.001921 
L 703.267557 276.623267 
L 705.497384 264.961553 
L 707.72721 318.110775 
L 709.957037 273.582462 
L 712.186864 311.866792 
L 714.41669 288.648497 
L 716.646517 245.550829 
L 718.876344 251.675508 
L 721.106171 329.619094 
L 723.335997 295.364966 
L 725.565824 310.55399 
L 727.795651 338.796146 
L 730.025477 259.428917 
L 732.255304 273.285143 
L 734.485131 312.076554 
L 736.714957 262.519373 
L 738.944784 282.118925 
L 741.174611 294.939873 
L 743.404438 338.162922 
L 745.634264 331.382543 
L 747.864091 247.849425 
L 747.864091 247.849425 
" clip-path="url(#p7f4f4e24c6)" style="fill: none; stroke-dasharray: 5.55,2.4; stroke-dashoffset: 0; stroke: #808080; stroke-width: 1.5"/>
   </g>
   <g id="line2d_26">
    <path d="M 81.145909 251.039909 
L 83.375736 255.988048 
L 85.605562 247.90925 
L 87.835389 251.224523 
L 90.065216 258.449153 
L 92.295043 257.220276 
L 94.524869 251.906359 
L 96.754696 238.181801 
L 98.984523 238.856229 
L 101.214349 236.11574 
L 103.444176 233.961942 
L 105.674003 246.880716 
L 107.903829 244.770993 
L 110.133656 246.54122 
L 112.363483 231.296715 
L 114.59331 227.932683 
L 116.823136 236.62234 
L 119.052963 231.021394 
L 121.28279 239.510324 
L 123.512616 222.344349 
L 125.742443 222.578935 
L 127.97227 219.171553 
L 130.202096 221.508154 
L 132.431923 218.976698 
L 134.66175 235.634608 
L 136.891576 219.870405 
L 139.121403 227.200354 
L 141.35123 213.799449 
L 143.581057 215.448181 
L 145.810883 213.169635 
L 148.04071 213.282214 
L 150.270537 223.550551 
L 152.500363 211.813886 
L 154.73019 224.898903 
L 156.960017 208.143849 
L 159.189843 207.478658 
L 161.41967 219.696416 
L 163.649497 206.478849 
L 165.879324 212.923652 
L 168.10915 215.215308 
L 170.338977 204.169666 
L 172.568804 215.008157 
L 174.79863 218.329284 
L 177.028457 213.934793 
L 179.258284 210.256361 
L 181.48811 198.291961 
L 183.717937 195.299197 
L 185.947764 208.65542 
L 188.17759 200.300509 
L 190.407417 204.444907 
L 192.637244 191.56908 
L 194.867071 199.924339 
L 197.096897 190.74872 
L 199.326724 206.950528 
L 201.556551 188.436141 
L 203.786377 203.984053 
L 206.016204 186.948803 
L 208.246031 200.545714 
L 210.475857 202.979545 
L 212.705684 195.424396 
L 214.935511 188.538769 
L 217.165337 196.316119 
L 219.395164 189.4683 
L 221.624991 190.634009 
L 223.854818 192.453652 
L 226.084644 187.708539 
L 228.314471 193.581191 
L 230.544298 183.411121 
L 232.774124 197.257245 
L 235.003951 177.378062 
L 237.233778 184.613855 
L 239.463604 180.104543 
L 241.693431 178.875335 
L 243.923258 179.589906 
L 248.382911 190.499918 
L 250.612738 177.459232 
L 252.842565 183.618773 
L 255.072391 183.210039 
L 257.302218 171.422172 
L 259.532045 173.334724 
L 261.761871 181.271436 
L 263.991698 180.351631 
L 266.221525 177.570257 
L 268.451351 176.964979 
L 270.681178 178.445838 
L 272.911005 181.203578 
L 275.140832 174.419438 
L 277.370658 162.948375 
L 279.600485 167.671434 
L 281.830312 162.293993 
L 284.060138 167.523174 
L 286.289965 173.318708 
L 288.519792 167.503607 
L 290.749618 178.12143 
L 292.979445 171.493522 
L 297.439099 164.033518 
L 299.668925 161.791863 
L 301.898752 165.020907 
L 304.128579 164.80076 
L 306.358405 168.835102 
L 308.588232 162.78079 
L 310.818059 153.24369 
L 313.047885 154.734141 
L 315.277712 167.004507 
L 317.507539 168.079856 
L 319.737365 158.495471 
L 321.967192 155.389284 
L 324.197019 160.872163 
L 326.426846 150.206027 
L 328.656672 150.926489 
L 330.886499 151.877408 
L 333.116326 160.477837 
L 335.346152 160.339722 
L 337.575979 163.288675 
L 342.035632 152.645198 
L 344.265459 144.239574 
L 346.495286 159.648892 
L 348.725112 151.928773 
L 350.954939 146.821926 
L 353.184766 155.172242 
L 355.414593 144.141804 
L 357.644419 147.669533 
L 359.874246 152.200054 
L 362.104073 143.032292 
L 364.333899 155.840382 
L 366.563726 139.782045 
L 368.793553 138.745894 
L 371.023379 151.826183 
L 373.253206 144.599777 
L 375.483033 149.117323 
L 377.71286 132.308184 
L 379.942686 140.773279 
L 382.172513 149.813261 
L 384.40234 145.066862 
L 386.632166 132.04656 
L 388.861993 139.521799 
L 391.09182 131.76074 
L 393.321646 133.902492 
L 395.551473 126.653663 
L 397.7813 134.145947 
L 400.011126 126.190985 
L 402.240953 126.782328 
L 404.47078 131.927868 
L 406.700607 129.104694 
L 408.930433 132.923499 
L 411.16026 125.570405 
L 413.390087 130.802105 
L 415.619913 122.964563 
L 417.84974 125.527995 
L 420.079567 130.479696 
L 422.309393 134.32625 
L 424.53922 133.964961 
L 426.769047 125.283752 
L 428.998874 122.02745 
L 431.2287 126.479053 
L 433.458527 123.694568 
L 435.688354 130.374395 
L 437.91818 133.849184 
L 440.148007 128.942257 
L 442.377834 128.632741 
L 444.60766 127.042009 
L 446.837487 121.886137 
L 449.067314 129.598895 
L 451.29714 127.08303 
L 453.526967 116.920738 
L 455.756794 116.070048 
L 457.986621 128.758793 
L 460.216447 121.067151 
L 462.446274 117.68541 
L 464.676101 119.719737 
L 466.905927 123.452974 
L 469.135754 118.455102 
L 471.365581 107.845966 
L 473.595407 113.894643 
L 475.825234 111.006346 
L 478.055061 107.08988 
L 480.284888 108.392923 
L 484.744541 122.943048 
L 486.974368 115.211798 
L 489.204194 106.326443 
L 493.663848 101.038482 
L 495.893674 111.515035 
L 498.123501 104.147638 
L 500.353328 107.739045 
L 502.583154 105.985498 
L 504.812981 113.328638 
L 507.042808 112.781241 
L 509.272635 107.736178 
L 511.502461 115.580323 
L 513.732288 108.661543 
L 515.962115 101.001065 
L 518.191941 106.118356 
L 520.421768 110.501265 
L 522.651595 103.684365 
L 524.881421 110.147125 
L 527.111248 99.355485 
L 529.341075 111.10426 
L 531.570901 102.952556 
L 533.800728 98.869073 
L 536.030555 109.420879 
L 538.260382 96.130717 
L 540.490208 106.058795 
L 542.720035 98.760197 
L 544.949862 106.712122 
L 547.179688 99.356802 
L 549.409515 102.265005 
L 551.639342 99.329217 
L 553.869168 89.793179 
L 556.098995 97.142905 
L 558.328822 88.880248 
L 560.558649 86.67697 
L 562.788475 98.114328 
L 565.018302 101.088368 
L 567.248129 101.83298 
L 569.477955 90.53101 
L 571.707782 80.461219 
L 573.937609 93.356028 
L 576.167435 86.60283 
L 578.397262 83.34725 
L 580.627089 85.480942 
L 582.856915 82.81848 
L 585.086742 78.235565 
L 587.316569 93.209017 
L 589.546396 96.369291 
L 591.776222 93.099134 
L 594.006049 93.100513 
L 596.235876 81.327397 
L 598.465702 82.970676 
L 600.695529 89.588521 
L 602.925356 79.094215 
L 605.155182 77.16352 
L 607.385009 89.017617 
L 609.614836 79.394786 
L 611.844663 75.951413 
L 614.074489 88.516523 
L 616.304316 73.409084 
L 618.534143 69.869657 
L 620.763969 87.053143 
L 622.993796 88.226768 
L 625.223623 81.776335 
L 627.453449 73.690529 
L 629.683276 67.354164 
L 631.913103 78.438141 
L 634.142929 71.326838 
L 636.372756 84.014788 
L 638.602583 70.778134 
L 640.83241 71.562962 
L 643.062236 81.901952 
L 645.292063 67.509885 
L 647.52189 65.376883 
L 649.751716 70.02122 
L 651.981543 79.411718 
L 654.21137 61.047205 
L 656.441196 64.686819 
L 658.671023 73.170767 
L 660.90085 70.97189 
L 663.130676 71.647751 
L 665.360503 68.328884 
L 667.59033 71.217091 
L 669.820157 60.186693 
L 672.049983 60.232883 
L 674.27981 74.539516 
L 676.509637 56.336876 
L 678.739463 62.546582 
L 680.96929 58.037892 
L 683.199117 60.034075 
L 685.428943 65.141576 
L 687.65877 58.459344 
L 689.888597 53.15558 
L 692.118424 67.024211 
L 694.34825 55.38441 
L 696.578077 60.457592 
L 698.807904 61.077863 
L 701.03773 61.559045 
L 703.267557 54.939774 
L 705.497384 63.998218 
L 707.72721 51.426959 
L 709.957037 51.353179 
L 712.186864 66.233379 
L 714.41669 49.286792 
L 716.646517 61.969765 
L 718.876344 56.897129 
L 721.106171 53.380609 
L 723.335997 57.660278 
L 725.565824 64.400296 
L 727.795651 46.892625 
L 730.025477 60.226966 
L 732.255304 59.098355 
L 734.485131 46.483895 
L 736.714957 55.443481 
L 738.944784 43.775769 
L 741.174611 46.979935 
L 743.404438 55.267323 
L 745.634264 60.271272 
L 747.864091 40.376364 
L 747.864091 40.376364 
" clip-path="url(#p7f4f4e24c6)" style="fill: none; stroke: #008000; stroke-width: 2; stroke-linecap: square"/>
   </g>
   <g id="line2d_27">
    <path d="M 47.81 132.362443 
L 781.2 132.362443 
" clip-path="url(#p7f4f4e24c6)" style="fill: none; stroke-dasharray: 1.5,2.475; stroke-dashoffset: 0; stroke: #4682b4; stroke-width: 1.5"/>
   </g>
   <g id="patch_3">
    <path d="M 47.81 354.04 
L 47.81 25.44 
" style="fill: none; stroke: #000000; stroke-width: 0.8; stroke-linejoin: miter; stroke-linecap: square"/>
   </g>
   <g id="patch_4">
    <path d="M 781.2 354.04 
L 781.2 25.44 
" style="fill: none; stroke: #000000; stroke-width: 0.8; stroke-linejoin: miter; stroke-linecap: square"/>
   </g>
   <g id="patch_5">
    <path d="M 47.81 354.04 
L 781.2 354.04 
" style="fill: none; stroke: #000000; stroke-width: 0.8; stroke-linejoin: miter; stroke-linecap: square"/>
   </g>
   <g id="patch_6">
    <path d="M 47.81 25.44 
L 781.2 25.44 
" style="fill: none; stroke: #000000; stroke-width: 0.8; stroke-linejoin: miter; stroke-linecap: square"/>
   </g>
   <g id="patch_7">
    <path d="M 390.859956 95.004987 
Q 401.592158 112.056904 411.728824 128.162599 
" style="fill: none; stroke: #000000; stroke-linecap: round"/>
    <path d="M 411.33462 124.157028 
L 411.728824 128.162599 
L 408.287844 126.07462 
" style="fill: none; stroke: #000000; stroke-linecap: round"/>
   </g>
   <g id="text_15">
    <!-- Starts prioritizing highways -->
    <g transform="translate(324.197019 89.44204) scale(0.09 -0.09)">
     <defs>
      <path id="DejaVuSans-53" d="M 3425 4513 
L 3425 3897 
Q 3066 4069 2747 4153 
Q 2428 4238 2131 4238 
Q 1616 4238 1336 4038 
Q 1056 3838 1056 3469 
Q 1056 3159 1242 3001 
Q 1428 2844 1947 2747 
L 2328 2669 
Q 3034 2534 3370 2195 
Q 3706 1856 3706 1288 
Q 3706 609 3251 259 
Q 2797 -91 1919 -91 
Q 1588 -91 1214 -16 
Q 841 59 441 206 
L 441 856 
Q 825 641 1194 531 
Q 1563 422 1919 422 
Q 2459 422 2753 634 
Q 3047 847 3047 1241 
Q 3047 1584 2836 1778 
Q 2625 1972 2144 2069 
L 1759 2144 
Q 1053 2284 737 2584 
Q 422 2884 422 3419 
Q 422 4038 858 4394 
Q 1294 4750 2059 4750 
Q 2388 4750 2728 4690 
Q 3069 4631 3425 4513 
z
" transform="scale(0.015625)"/>
      <path id="DejaVuSans-74" d="M 1172 4494 
L 1172 3500 
L 2356 3500 
L 2356 3053 
L 1172 3053 
L 1172 1153 
Q 1172 725 1289 603 
Q 1406 481 1766 481 
L 2356 481 
L 2356 0 
L 1766 0 
Q 1100 0 847 248 
Q 594 497 594 1153 
L 594 3053 
L 172 3053 
L 172 3500 
L 594 3500 
L 594 4494 
L 1172 4494 
z
" transform="scale(0.015625)"/>
      <path id="DejaVuSans-7a" d="M 353 3500 
L 3084 3500 
L 3084 2975 
L 922 459 
L 3084 459 
L 3084 0 
L 275 0 
L 275 525 
L 2438 3041 
L 353 3041 
L 353 3500 
z
" transform="scale(0.015625)"/>
      <path id="DejaVuSans-68" d="M 3513 2113 
L 3513 0 
L 2938 0 
L 2938 2094 
Q 2938 2591 2744 2837 
Q 2550 3084 2163 3084 
Q 1697 3084 1428 2787 
Q 1159 2491 1159 1978 
L 1159 0 
L 581 0 
L 581 4863 
L 1159 4863 
L 1159 2956 
Q 1366 3272 1645 3428 
Q 1925 3584 2291 3584 
Q 2894 3584 3203 3211 
Q 3513 2838 3513 2113 
z
" transform="scale(0.015625)"/>
      <path id="DejaVuSans-79" d="M 2059 -325 
Q 1816 -950 1584 -1140 
Q 1353 -1331 966 -1331 
L 506 -1331 
L 506 -850 
L 844 -850 
Q 1081 -850 1212 -737 
Q 1344 -625 1503 -206 
L 1606 56 
L 191 3500 
L 800 3500 
L 1894 763 
L 2988 3500 
L 3597 3500 
L 2059 -325 
z
" transform="scale(0.015625)"/>
     </defs>
     <use xlink:href="#DejaVuSans-53"/>
     <use xlink:href="#DejaVuSans-74" transform="translate(63.476562 0)"/>
     <use xlink:href="#DejaVuSans-61" transform="translate(102.685547 0)"/>
     <use xlink:href="#DejaVuSans-72" transform="translate(163.964844 0)"/>
     <use xlink:href="#DejaVuSans-74" transform="translate(205.078125 0)"/>
     <use xlink:href="#DejaVuSans-73" transform="translate(244.287109 0)"/>
     <use xlink:href="#DejaVuSans-20" transform="translate(296.386719 0)"/>
     <use xlink:href="#DejaVuSans-70" transform="translate(328.173828 0)"/>
     <use xlink:href="#DejaVuSans-72" transform="translate(391.650391 0)"/>
     <use xlink:href="#DejaVuSans-69" transform="translate(432.763672 0)"/>
     <use xlink:href="#DejaVuSans-6f" transform="translate(460.546875 0)"/>
     <use xlink:href="#DejaVuSans-72" transform="translate(521.728516 0)"/>
     <use xlink:href="#DejaVuSans-69" transform="translate(562.841797 0)"/>
     <use xlink:href="#DejaVuSans-74" transform="translate(590.625 0)"/>
     <use xlink:href="#DejaVuSans-69" transform="translate(629.833984 0)"/>
     <use xlink:href="#DejaVuSans-7a" transform="translate(657.617188 0)"/>
     <use xlink:href="#DejaVuSans-69" transform="translate(710.107422 0)"/>
     <use xlink:href="#DejaVuSans-6e" transform="translate(737.890625 0)"/>
     <use xlink:href="#DejaVuSans-67" transform="translate(801.269531 0)"/>
     <use xlink:href="#DejaVuSans-20" transform="translate(864.746094 0)"/>
     <use xlink:href="#DejaVuSans-68" transform="translate(896.533203 0)"/>
     <use xlink:href="#DejaVuSans-69" transform="translate(959.912109 0)"/>
     <use xlink:href="#DejaVuSans-67" transform="translate(987.695312 0)"/>
     <use xlink:href="#DejaVuSans-68" transform="translate(1051.171875 0)"/>
     <use xlink:href="#DejaVuSans-77" transform="translate(1114.550781 0)"/>
     <use xlink:href="#DejaVuSans-61" transform="translate(1196.337891 0)"/>
     <use xlink:href="#DejaVuSans-79" transform="translate(1257.617188 0)"/>
     <use xlink:href="#DejaVuSans-73" transform="translate(1316.796875 0)"/>
    </g>
   </g>
   <g id="patch_8">
    <path d="M 604.875659 48.030046 
Q 619.965775 65.270173 634.319523 81.669014 
" style="fill: none; stroke: #000000; stroke-linecap: round"/>
    <path d="M 633.302904 77.774597 
L 634.319523 81.669014 
L 630.594017 80.145659 
" style="fill: none; stroke: #000000; stroke-linecap: round"/>
   </g>
   <g id="text_16">
    <!-- Weather avoidance learned -->
    <g transform="translate(536.030555 42.654723) scale(0.09 -0.09)">
     <defs>
      <path id="DejaVuSans-57" d="M 213 4666 
L 850 4666 
L 1831 722 
L 2809 4666 
L 3519 4666 
L 4500 722 
L 5478 4666 
L 6119 4666 
L 4947 0 
L 4153 0 
L 3169 4050 
L 2175 0 
L 1381 0 
L 213 4666 
z
" transform="scale(0.015625)"/>
      <path id="DejaVuSans-76" d="M 191 3500 
L 800 3500 
L 1894 563 
L 2988 3500 
L 3597 3500 
L 2284 0 
L 1503 0 
L 191 3500 
z
" transform="scale(0.015625)"/>
      <path id="DejaVuSans-63" d="M 3122 3366 
L 3122 2828 
Q 2878 2963 2633 3030 
Q 2388 3097 2138 3097 
Q 1578 3097 1268 2742 
Q 959 2388 959 1747 
Q 959 1106 1268 751 
Q 1578 397 2138 397 
Q 2388 397 2633 464 
Q 2878 531 3122 666 
L 3122 134 
Q 2881 22 2623 -34 
Q 2366 -91 2075 -91 
Q 1284 -91 818 406 
Q 353 903 353 1747 
Q 353 2603 823 3093 
Q 1294 3584 2113 3584 
Q 2378 3584 2631 3529 
Q 2884 3475 3122 3366 
z
" transform="scale(0.015625)"/>
      <path id="DejaVuSans-6c" d="M 603 4863 
L 1178 4863 
L 1178 0 
L 603 0 
L 603 4863 
z
" transform="scale(0.015625)"/>
     </defs>
     <use xlink:href="#DejaVuSans-57"/>
     <use xlink:href="#DejaVuSans-65" transform="translate(93.001953 0)"/>
     <use xlink:href="#DejaVuSans-61" transform="translate(154.525391 0)"/>
     <use xlink:href="#DejaVuSans-74" transform="translate(215.804688 0)"/>
     <use xlink:href="#DejaVuSans-68" transform="translate(255.013672 0)"/>
     <use xlink:href="#DejaVuSans-65" transform="translate(318.392578 0)"/>
     <use xlink:href="#DejaVuSans-72" transform="translate(379.916016 0)"/>
     <use xlink:href="#DejaVuSans-20" transform="translate(421.029297 0)"/>
     <use xlink:href="#DejaVuSans-61" transform="translate(452.816406 0)"/>
     <use xlink:href="#DejaVuSans-76" transform="translate(514.095703 0)"/>
     <use xlink:href="#DejaVuSans-6f" transform="translate(573.275391 0)"/>
     <use xlink:href="#DejaVuSans-69" transform="translate(634.457031 0)"/>
     <use xlink:href="#DejaVuSans-64" transform="translate(662.240234 0)"/>
     <use xlink:href="#DejaVuSans-61" transform="translate(725.716797 0)"/>
     <use xlink:href="#DejaVuSans-6e" transform="translate(786.996094 0)"/>
     <use xlink:href="#DejaVuSans-63" transform="translate(850.375 0)"/>
     <use xlink:href="#DejaVuSans-65" transform="translate(905.355469 0)"/>
     <use xlink:href="#DejaVuSans-20" transform="translate(966.878906 0)"/>
     <use xlink:href="#DejaVuSans-6c" transform="translate(998.666016 0)"/>
     <use xlink:href="#DejaVuSans-65" transform="translate(1026.449219 0)"/>
     <use xlink:href="#DejaVuSans-61" transform="translate(1087.972656 0)"/>
     <use xlink:href="#DejaVuSans-72" transform="translate(1149.251953 0)"/>
     <use xlink:href="#DejaVuSans-6e" transform="translate(1188.615234 0)"/>
     <use xlink:href="#DejaVuSans-65" transform="translate(1251.994141 0)"/>
     <use xlink:href="#DejaVuSans-64" transform="translate(1313.517578 0)"/>
    </g>
   </g>
   <g id="text_17">
    <!-- CivicMind — Agent Learning Progress -->
    <g transform="translate(302.639687 19.44) scale(0.12 -0.12)">
     <defs>
      <path id="DejaVuSans-43" d="M 4122 4306 
L 4122 3641 
Q 3803 3938 3442 4084 
Q 3081 4231 2675 4231 
Q 1875 4231 1450 3742 
Q 1025 3253 1025 2328 
Q 1025 1406 1450 917 
Q 1875 428 2675 428 
Q 3081 428 3442 575 
Q 3803 722 4122 1019 
L 4122 359 
Q 3791 134 3420 21 
Q 3050 -91 2638 -91 
Q 1578 -91 968 557 
Q 359 1206 359 2328 
Q 359 3453 968 4101 
Q 1578 4750 2638 4750 
Q 3056 4750 3426 4639 
Q 3797 4528 4122 4306 
z
" transform="scale(0.015625)"/>
      <path id="DejaVuSans-4d" d="M 628 4666 
L 1569 4666 
L 2759 1491 
L 3956 4666 
L 4897 4666 
L 4897 0 
L 4281 0 
L 4281 4097 
L 3078 897 
L 2444 897 
L 1241 4097 
L 1241 0 
L 628 0 
L 628 4666 
z
" transform="scale(0.015625)"/>
      <path id="DejaVuSans-2014" d="M 313 1978 
L 6088 1978 
L 6088 1528 
L 313 1528 
L 313 1978 
z
" transform="scale(0.015625)"/>
      <path id="DejaVuSans-41" d="M 2188 4044 
L 1331 1722 
L 3047 1722 
L 2188 4044 
z
M 1831 4666 
L 2547 4666 
L 4325 0 
L 3669 0 
L 3244 1197 
L 1141 1197 
L 716 0 
L 50 0 
L 1831 4666 
z
" transform="scale(0.015625)"/>
      <path id="DejaVuSans-4c" d="M 628 4666 
L 1259 4666 
L 1259 531 
L 3531 531 
L 3531 0 
L 628 0 
L 628 4666 
z
" transform="scale(0.015625)"/>
      <path id="DejaVuSans-50" d="M 1259 4147 
L 1259 2394 
L 2053 2394 
Q 2494 2394 2734 2622 
Q 2975 2850 2975 3272 
Q 2975 3691 2734 3919 
Q 2494 4147 2053 4147 
L 1259 4147 
z
M 628 4666 
L 2053 4666 
Q 2838 4666 3239 4311 
Q 3641 3956 3641 3272 
Q 3641 2581 3239 2228 
Q 2838 1875 2053 1875 
L 1259 1875 
L 1259 0 
L 628 0 
L 628 4666 
z
" transform="scale(0.015625)"/>
     </defs>
     <use xlink:href="#DejaVuSans-43"/>
     <use xlink:href="#DejaVuSans-69" transform="translate(69.824219 0)"/>
     <use xlink:href="#DejaVuSans-76" transform="translate(97.607422 0)"/>
     <use xlink:href="#DejaVuSans-69" transform="translate(156.787109 0)"/>
     <use xlink:href="#DejaVuSans-63" transform="translate(184.570312 0)"/>
     <use xlink:href="#DejaVuSans-4d" transform="translate(239.550781 0)"/>
     <use xlink:href="#DejaVuSans-69" transform="translate(325.830078 0)"/>
     <use xlink:href="#DejaVuSans-6e" transform="translate(353.613281 0)"/>
     <use xlink:href="#DejaVuSans-64" transform="translate(416.992188 0)"/>
     <use xlink:href="#DejaVuSans-20" transform="translate(480.46875 0)"/>
     <use xlink:href="#DejaVuSans-2014" transform="translate(512.255859 0)"/>
     <use xlink:href="#DejaVuSans-20" transform="translate(612.255859 0)"/>
     <use xlink:href="#DejaVuSans-41" transform="translate(644.042969 0)"/>
     <use xlink:href="#DejaVuSans-67" transform="translate(712.451172 0)"/>
     <use xlink:href="#DejaVuSans-65" transform="translate(775.927734 0)"/>
     <use xlink:href="#DejaVuSans-6e" transform="translate(837.451172 0)"/>
     <use xlink:href="#DejaVuSans-74" transform="translate(900.830078 0)"/>
     <use xlink:href="#DejaVuSans-20" transform="translate(940.039062 0)"/>
     <use xlink:href="#DejaVuSans-4c" transform="translate(971.826172 0)"/>
     <use xlink:href="#DejaVuSans-65" transform="translate(1025.789062 0)"/>
     <use xlink:href="#DejaVuSans-61" transform="translate(1087.3125 0)"/>
     <use xlink:href="#DejaVuSans-72" transform="translate(1148.591797 0)"/>
     <use xlink:href="#DejaVuSans-6e" transform="translate(1187.955078 0)"/>
     <use xlink:href="#DejaVuSans-69" transform="translate(1251.333984 0)"/>
     <use xlink:href="#DejaVuSans-6e" transform="translate(1279.117188 0)"/>
     <use xlink:href="#DejaVuSans-67" transform="translate(1342.496094 0)"/>
     <use xlink:href="#DejaVuSans-20" transform="translate(1405.972656 0)"/>
     <use xlink:href="#DejaVuSans-50" transform="translate(1437.759766 0)"/>
     <use xlink:href="#DejaVuSans-72" transform="translate(1496.3125 0)"/>
     <use xlink:href="#DejaVuSans-6f" transform="translate(1535.175781 0)"/>
     <use xlink:href="#DejaVuSans-67" transform="translate(1596.357422 0)"/>
     <use xlink:href="#DejaVuSans-72" transform="translate(1659.833984 0)"/>
     <use xlink:href="#DejaVuSans-65" transform="translate(1698.697266 0)"/>
     <use xlink:href="#DejaVuSans-73" transform="translate(1760.220703 0)"/>
     <use xlink:href="#DejaVuSans-73" transform="translate(1812.320312 0)"/>
    </g>
   </g>
   <g id="legend_1">
    <g id="patch_9">
     <path d="M 54.81 77.474375 
L 177.331875 77.474375 
Q 179.331875 77.474375 179.331875 75.474375 
L 179.331875 32.44 
Q 179.331875 30.44 177.331875 30.44 
L 54.81 30.44 
Q 52.81 30.44 52.81 32.44 
L 52.81 75.474375 
Q 52.81 77.474375 54.81 77.474375 
z
" style="fill: #ffffff; opacity: 0.8; stroke: #cccccc; stroke-linejoin: miter"/>
    </g>
    <g id="line2d_28">
     <path d="M 56.81 38.538437 
L 66.81 38.538437 
L 76.81 38.538437 
" style="fill: none; stroke-dasharray: 5.55,2.4; stroke-dashoffset: 0; stroke: #808080; stroke-width: 1.5"/>
    </g>
    <g id="text_18">
     <!-- Random baseline -->
     <g transform="translate(84.81 42.038437) scale(0.1 -0.1)">
      <defs>
       <path id="DejaVuSans-6d" d="M 3328 2828 
Q 3544 3216 3844 3400 
Q 4144 3584 4550 3584 
Q 5097 3584 5394 3201 
Q 5691 2819 5691 2113 
L 5691 0 
L 5113 0 
L 5113 2094 
Q 5113 2597 4934 2840 
Q 4756 3084 4391 3084 
Q 3944 3084 3684 2787 
Q 3425 2491 3425 1978 
L 3425 0 
L 2847 0 
L 2847 2094 
Q 2847 2600 2669 2842 
Q 2491 3084 2119 3084 
Q 1678 3084 1418 2786 
Q 1159 2488 1159 1978 
L 1159 0 
L 581 0 
L 581 3500 
L 1159 3500 
L 1159 2956 
Q 1356 3278 1631 3431 
Q 1906 3584 2284 3584 
Q 2666 3584 2933 3390 
Q 3200 3197 3328 2828 
z
" transform="scale(0.015625)"/>
       <path id="DejaVuSans-62" d="M 3116 1747 
Q 3116 2381 2855 2742 
Q 2594 3103 2138 3103 
Q 1681 3103 1420 2742 
Q 1159 2381 1159 1747 
Q 1159 1113 1420 752 
Q 1681 391 2138 391 
Q 2594 391 2855 752 
Q 3116 1113 3116 1747 
z
M 1159 2969 
Q 1341 3281 1617 3432 
Q 1894 3584 2278 3584 
Q 2916 3584 3314 3078 
Q 3713 2572 3713 1747 
Q 3713 922 3314 415 
Q 2916 -91 2278 -91 
Q 1894 -91 1617 61 
Q 1341 213 1159 525 
L 1159 0 
L 581 0 
L 581 4863 
L 1159 4863 
L 1159 2969 
z
" transform="scale(0.015625)"/>
      </defs>
      <use xlink:href="#DejaVuSans-52"/>
      <use xlink:href="#DejaVuSans-61" transform="translate(67.232422 0)"/>
      <use xlink:href="#DejaVuSans-6e" transform="translate(128.511719 0)"/>
      <use xlink:href="#DejaVuSans-64" transform="translate(191.890625 0)"/>
      <use xlink:href="#DejaVuSans-6f" transform="translate(255.367188 0)"/>
      <use xlink:href="#DejaVuSans-6d" transform="translate(316.548828 0)"/>
      <use xlink:href="#DejaVuSans-20" transform="translate(413.960938 0)"/>
      <use xlink:href="#DejaVuSans-62" transform="translate(445.748047 0)"/>
      <use xlink:href="#DejaVuSans-61" transform="translate(509.224609 0)"/>
      <use xlink:href="#DejaVuSans-73" transform="translate(570.503906 0)"/>
      <use xlink:href="#DejaVuSans-65" transform="translate(622.603516 0)"/>
      <use xlink:href="#DejaVuSans-6c" transform="translate(684.126953 0)"/>
      <use xlink:href="#DejaVuSans-69" transform="translate(711.910156 0)"/>
      <use xlink:href="#DejaVuSans-6e" transform="translate(739.693359 0)"/>
      <use xlink:href="#DejaVuSans-65" transform="translate(803.072266 0)"/>
     </g>
    </g>
    <g id="line2d_29">
     <path d="M 56.81 53.216563 
L 66.81 53.216563 
L 76.81 53.216563 
" style="fill: none; stroke: #008000; stroke-width: 2; stroke-linecap: square"/>
    </g>
    <g id="text_19">
     <!-- CivicMind agent -->
     <g transform="translate(84.81 56.716563) scale(0.1 -0.1)">
      <use xlink:href="#DejaVuSans-43"/>
      <use xlink:href="#DejaVuSans-69" transform="translate(69.824219 0)"/>
      <use xlink:href="#DejaVuSans-76" transform="translate(97.607422 0)"/>
      <use xlink:href="#DejaVuSans-69" transform="translate(156.787109 0)"/>
      <use xlink:href="#DejaVuSans-63" transform="translate(184.570312 0)"/>
      <use xlink:href="#DejaVuSans-4d" transform="translate(239.550781 0)"/>
      <use xlink:href="#DejaVuSans-69" transform="translate(325.830078 0)"/>
      <use xlink:href="#DejaVuSans-6e" transform="translate(353.613281 0)"/>
      <use xlink:href="#DejaVuSans-64" transform="translate(416.992188 0)"/>
      <use xlink:href="#DejaVuSans-20" transform="translate(480.46875 0)"/>
      <use xlink:href="#DejaVuSans-61" transform="translate(512.255859 0)"/>
      <use xlink:href="#DejaVuSans-67" transform="translate(573.535156 0)"/>
      <use xlink:href="#DejaVuSans-65" transform="translate(637.011719 0)"/>
      <use xlink:href="#DejaVuSans-6e" transform="translate(698.535156 0)"/>
      <use xlink:href="#DejaVuSans-74" transform="translate(761.914062 0)"/>
     </g>
    </g>
    <g id="line2d_30">
     <path d="M 56.81 67.894687 
L 66.81 67.894687 
L 76.81 67.894687 
" style="fill: none; stroke-dasharray: 1.5,2.475; stroke-dashoffset: 0; stroke: #4682b4; stroke-width: 1.5"/>
    </g>
    <g id="text_20">
     <!-- Success threshold -->
     <g transform="translate(84.81 71.394687) scale(0.1 -0.1)">
      <defs>
       <path id="DejaVuSans-75" d="M 544 1381 
L 544 3500 
L 1119 3500 
L 1119 1403 
Q 1119 906 1312 657 
Q 1506 409 1894 409 
Q 2359 409 2629 706 
Q 2900 1003 2900 1516 
L 2900 3500 
L 3475 3500 
L 3475 0 
L 2900 0 
L 2900 538 
Q 2691 219 2414 64 
Q 2138 -91 1772 -91 
Q 1169 -91 856 284 
Q 544 659 544 1381 
z
M 1991 3584 
L 1991 3584 
z
" transform="scale(0.015625)"/>
      </defs>
      <use xlink:href="#DejaVuSans-53"/>
      <use xlink:href="#DejaVuSans-75" transform="translate(63.476562 0)"/>
      <use xlink:href="#DejaVuSans-63" transform="translate(126.855469 0)"/>
      <use xlink:href="#DejaVuSans-63" transform="translate(181.835938 0)"/>
      <use xlink:href="#DejaVuSans-65" transform="translate(236.816406 0)"/>
      <use xlink:href="#DejaVuSans-73" transform="translate(298.339844 0)"/>
      <use xlink:href="#DejaVuSans-73" transform="translate(350.439453 0)"/>
      <use xlink:href="#DejaVuSans-20" transform="translate(402.539062 0)"/>
      <use xlink:href="#DejaVuSans-74" transform="translate(434.326172 0)"/>
      <use xlink:href="#DejaVuSans-68" transform="translate(473.535156 0)"/>
      <use xlink:href="#DejaVuSans-72" transform="translate(536.914062 0)"/>
      <use xlink:href="#DejaVuSans-65" transform="translate(575.777344 0)"/>
      <use xlink:href="#DejaVuSans-73" transform="translate(637.300781 0)"/>
      <use xlink:href="#DejaVuSans-68" transform="translate(689.400391 0)"/>
      <use xlink:href="#DejaVuSans-6f" transform="translate(752.779297 0)"/>
      <use xlink:href="#DejaVuSans-6c" transform="translate(813.960938 0)"/>
      <use xlink:href="#DejaVuSans-64" transform="translate(841.744141 0)"/>
     </g>
    </g>
   </g>
  </g>
 </g>
 <defs>
  <clipPath id="p7f4f4e24c6">
   <rect x="47.81" y="25.44" width="733.39" height="328.6"/>
  </clipPath>
 </defs>
</svg>
